%TF.GenerationSoftware,KiCad,Pcbnew,(6.0.6-0)*%
%TF.CreationDate,2023-01-06T16:27:02+00:00*%
%TF.ProjectId,MacSplit60,4d616353-706c-4697-9436-302e6b696361,rev?*%
%TF.SameCoordinates,Original*%
%TF.FileFunction,Legend,Top*%
%TF.FilePolarity,Positive*%
%FSLAX46Y46*%
G04 Gerber Fmt 4.6, Leading zero omitted, Abs format (unit mm)*
G04 Created by KiCad (PCBNEW (6.0.6-0)) date 2023-01-06 16:27:02*
%MOMM*%
%LPD*%
G01*
G04 APERTURE LIST*
%ADD10C,0.150000*%
%ADD11C,0.120000*%
G04 APERTURE END LIST*
D10*
%TO.C,C1*%
X196423333Y-48267142D02*
X196375714Y-48314761D01*
X196232857Y-48362380D01*
X196137619Y-48362380D01*
X195994761Y-48314761D01*
X195899523Y-48219523D01*
X195851904Y-48124285D01*
X195804285Y-47933809D01*
X195804285Y-47790952D01*
X195851904Y-47600476D01*
X195899523Y-47505238D01*
X195994761Y-47410000D01*
X196137619Y-47362380D01*
X196232857Y-47362380D01*
X196375714Y-47410000D01*
X196423333Y-47457619D01*
X197375714Y-48362380D02*
X196804285Y-48362380D01*
X197090000Y-48362380D02*
X197090000Y-47362380D01*
X196994761Y-47505238D01*
X196899523Y-47600476D01*
X196804285Y-47648095D01*
%TO.C,SW2*%
X132666666Y-53604761D02*
X132809523Y-53652380D01*
X133047619Y-53652380D01*
X133142857Y-53604761D01*
X133190476Y-53557142D01*
X133238095Y-53461904D01*
X133238095Y-53366666D01*
X133190476Y-53271428D01*
X133142857Y-53223809D01*
X133047619Y-53176190D01*
X132857142Y-53128571D01*
X132761904Y-53080952D01*
X132714285Y-53033333D01*
X132666666Y-52938095D01*
X132666666Y-52842857D01*
X132714285Y-52747619D01*
X132761904Y-52700000D01*
X132857142Y-52652380D01*
X133095238Y-52652380D01*
X133238095Y-52700000D01*
X133571428Y-52652380D02*
X133809523Y-53652380D01*
X134000000Y-52938095D01*
X134190476Y-53652380D01*
X134428571Y-52652380D01*
X134761904Y-52747619D02*
X134809523Y-52700000D01*
X134904761Y-52652380D01*
X135142857Y-52652380D01*
X135238095Y-52700000D01*
X135285714Y-52747619D01*
X135333333Y-52842857D01*
X135333333Y-52938095D01*
X135285714Y-53080952D01*
X134714285Y-53652380D01*
X135333333Y-53652380D01*
%TO.C,SW18*%
X208990476Y-90404761D02*
X209133333Y-90452380D01*
X209371428Y-90452380D01*
X209466666Y-90404761D01*
X209514285Y-90357142D01*
X209561904Y-90261904D01*
X209561904Y-90166666D01*
X209514285Y-90071428D01*
X209466666Y-90023809D01*
X209371428Y-89976190D01*
X209180952Y-89928571D01*
X209085714Y-89880952D01*
X209038095Y-89833333D01*
X208990476Y-89738095D01*
X208990476Y-89642857D01*
X209038095Y-89547619D01*
X209085714Y-89500000D01*
X209180952Y-89452380D01*
X209419047Y-89452380D01*
X209561904Y-89500000D01*
X209895238Y-89452380D02*
X210133333Y-90452380D01*
X210323809Y-89738095D01*
X210514285Y-90452380D01*
X210752380Y-89452380D01*
X211657142Y-90452380D02*
X211085714Y-90452380D01*
X211371428Y-90452380D02*
X211371428Y-89452380D01*
X211276190Y-89595238D01*
X211180952Y-89690476D01*
X211085714Y-89738095D01*
X212228571Y-89880952D02*
X212133333Y-89833333D01*
X212085714Y-89785714D01*
X212038095Y-89690476D01*
X212038095Y-89642857D01*
X212085714Y-89547619D01*
X212133333Y-89500000D01*
X212228571Y-89452380D01*
X212419047Y-89452380D01*
X212514285Y-89500000D01*
X212561904Y-89547619D01*
X212609523Y-89642857D01*
X212609523Y-89690476D01*
X212561904Y-89785714D01*
X212514285Y-89833333D01*
X212419047Y-89880952D01*
X212228571Y-89880952D01*
X212133333Y-89928571D01*
X212085714Y-89976190D01*
X212038095Y-90071428D01*
X212038095Y-90261904D01*
X212085714Y-90357142D01*
X212133333Y-90404761D01*
X212228571Y-90452380D01*
X212419047Y-90452380D01*
X212514285Y-90404761D01*
X212561904Y-90357142D01*
X212609523Y-90261904D01*
X212609523Y-90071428D01*
X212561904Y-89976190D01*
X212514285Y-89928571D01*
X212419047Y-89880952D01*
%TO.C,U1*%
X232238095Y-60552380D02*
X232238095Y-61361904D01*
X232285714Y-61457142D01*
X232333333Y-61504761D01*
X232428571Y-61552380D01*
X232619047Y-61552380D01*
X232714285Y-61504761D01*
X232761904Y-61457142D01*
X232809523Y-61361904D01*
X232809523Y-60552380D01*
X233809523Y-61552380D02*
X233238095Y-61552380D01*
X233523809Y-61552380D02*
X233523809Y-60552380D01*
X233428571Y-60695238D01*
X233333333Y-60790476D01*
X233238095Y-60838095D01*
X225490476Y-87623809D02*
X225604761Y-87661904D01*
X225795238Y-87661904D01*
X225871428Y-87623809D01*
X225909523Y-87585714D01*
X225947619Y-87509523D01*
X225947619Y-87433333D01*
X225909523Y-87357142D01*
X225871428Y-87319047D01*
X225795238Y-87280952D01*
X225642857Y-87242857D01*
X225566666Y-87204761D01*
X225528571Y-87166666D01*
X225490476Y-87090476D01*
X225490476Y-87014285D01*
X225528571Y-86938095D01*
X225566666Y-86900000D01*
X225642857Y-86861904D01*
X225833333Y-86861904D01*
X225947619Y-86900000D01*
X226214285Y-86861904D02*
X226404761Y-87661904D01*
X226557142Y-87090476D01*
X226709523Y-87661904D01*
X226900000Y-86861904D01*
X227661904Y-87585714D02*
X227623809Y-87623809D01*
X227509523Y-87661904D01*
X227433333Y-87661904D01*
X227319047Y-87623809D01*
X227242857Y-87547619D01*
X227204761Y-87471428D01*
X227166666Y-87319047D01*
X227166666Y-87204761D01*
X227204761Y-87052380D01*
X227242857Y-86976190D01*
X227319047Y-86900000D01*
X227433333Y-86861904D01*
X227509523Y-86861904D01*
X227623809Y-86900000D01*
X227661904Y-86938095D01*
X228385714Y-87661904D02*
X228004761Y-87661904D01*
X228004761Y-86861904D01*
X228652380Y-87661904D02*
X228652380Y-86861904D01*
X229109523Y-87661904D02*
X228766666Y-87204761D01*
X229109523Y-86861904D02*
X228652380Y-87319047D01*
X218843722Y-72920592D02*
X218762910Y-72947529D01*
X218682097Y-73028341D01*
X218628223Y-73136091D01*
X218628223Y-73243841D01*
X218655160Y-73324653D01*
X218735972Y-73459340D01*
X218816784Y-73540152D01*
X218951471Y-73620964D01*
X219032284Y-73647902D01*
X219140033Y-73647902D01*
X219247783Y-73594027D01*
X219301658Y-73540152D01*
X219355532Y-73432402D01*
X219355532Y-73378528D01*
X219166971Y-73189966D01*
X219059221Y-73297715D01*
X219651844Y-73189966D02*
X219086158Y-72624280D01*
X219301658Y-72408781D01*
X219382470Y-72381844D01*
X219436345Y-72381844D01*
X219517157Y-72408781D01*
X219597969Y-72489593D01*
X219624906Y-72570406D01*
X219624906Y-72624280D01*
X219597969Y-72705093D01*
X219382470Y-72920592D01*
X220513841Y-72327969D02*
X220190592Y-72651218D01*
X220352216Y-72489593D02*
X219786531Y-71923908D01*
X219813468Y-72058595D01*
X219813468Y-72166345D01*
X219786531Y-72247157D01*
X221052589Y-71789221D02*
X220729340Y-72112470D01*
X220890964Y-71950845D02*
X220325279Y-71385160D01*
X220352216Y-71519847D01*
X220352216Y-71627597D01*
X220325279Y-71708409D01*
X245948155Y-42763841D02*
X245975093Y-42844653D01*
X246055905Y-42925465D01*
X246163654Y-42979340D01*
X246271404Y-42979340D01*
X246352216Y-42952402D01*
X246486903Y-42871590D01*
X246567715Y-42790778D01*
X246648528Y-42656091D01*
X246675465Y-42575279D01*
X246675465Y-42467529D01*
X246621590Y-42359780D01*
X246567715Y-42305905D01*
X246459966Y-42252030D01*
X246406091Y-42252030D01*
X246217529Y-42440592D01*
X246325279Y-42548341D01*
X246217529Y-41955719D02*
X245651844Y-42521404D01*
X245894280Y-41632470D01*
X245328595Y-42198155D01*
X245624906Y-41363096D02*
X245059221Y-41928781D01*
X244924534Y-41794094D01*
X244870659Y-41686345D01*
X244870659Y-41578595D01*
X244897597Y-41497783D01*
X244978409Y-41363096D01*
X245059221Y-41282284D01*
X245193908Y-41201471D01*
X245274720Y-41174534D01*
X245382470Y-41174534D01*
X245490219Y-41228409D01*
X245624906Y-41363096D01*
X245097722Y-72920592D02*
X245016910Y-72947529D01*
X244936097Y-73028341D01*
X244882223Y-73136091D01*
X244882223Y-73243841D01*
X244909160Y-73324653D01*
X244989972Y-73459340D01*
X245070784Y-73540152D01*
X245205471Y-73620964D01*
X245286284Y-73647902D01*
X245394033Y-73647902D01*
X245501783Y-73594027D01*
X245555658Y-73540152D01*
X245609532Y-73432402D01*
X245609532Y-73378528D01*
X245420971Y-73189966D01*
X245313221Y-73297715D01*
X245905844Y-73189966D02*
X245340158Y-72624280D01*
X245555658Y-72408781D01*
X245636470Y-72381844D01*
X245690345Y-72381844D01*
X245771157Y-72408781D01*
X245851969Y-72489593D01*
X245878906Y-72570406D01*
X245878906Y-72624280D01*
X245851969Y-72705093D01*
X245636470Y-72920592D01*
X245932781Y-72139407D02*
X245932781Y-72085532D01*
X245959719Y-72004720D01*
X246094406Y-71870033D01*
X246175218Y-71843096D01*
X246229093Y-71843096D01*
X246309905Y-71870033D01*
X246363780Y-71923908D01*
X246417654Y-72031658D01*
X246417654Y-72678155D01*
X246767841Y-72327969D01*
X246552341Y-71412097D02*
X246606216Y-71358223D01*
X246687028Y-71331285D01*
X246740903Y-71331285D01*
X246821715Y-71358223D01*
X246956402Y-71439035D01*
X247091089Y-71573722D01*
X247171902Y-71708409D01*
X247198839Y-71789221D01*
X247198839Y-71843096D01*
X247171902Y-71923908D01*
X247118027Y-71977783D01*
X247037215Y-72004720D01*
X246983340Y-72004720D01*
X246902528Y-71977783D01*
X246767841Y-71896971D01*
X246633154Y-71762284D01*
X246552341Y-71627597D01*
X246525404Y-71546784D01*
X246525404Y-71492910D01*
X246552341Y-71412097D01*
X245151597Y-55840964D02*
X245420971Y-55571590D01*
X245259346Y-56056463D02*
X244882223Y-55302216D01*
X245636470Y-55679340D01*
X245582595Y-54655719D02*
X245501783Y-54682656D01*
X245420971Y-54763468D01*
X245367096Y-54871218D01*
X245367096Y-54978967D01*
X245394033Y-55059780D01*
X245474845Y-55194467D01*
X245555658Y-55275279D01*
X245690345Y-55356091D01*
X245771157Y-55383028D01*
X245878906Y-55383028D01*
X245986656Y-55329154D01*
X246040531Y-55275279D01*
X246094406Y-55167529D01*
X246094406Y-55113654D01*
X245905844Y-54925093D01*
X245798094Y-55032842D01*
X246390717Y-54925093D02*
X245825032Y-54359407D01*
X246713966Y-54601844D01*
X246148280Y-54036158D01*
X246983340Y-54332470D02*
X246417654Y-53766784D01*
X246552341Y-53632097D01*
X246660091Y-53578223D01*
X246767841Y-53578223D01*
X246848653Y-53605160D01*
X246983340Y-53685972D01*
X247064152Y-53766784D01*
X247144964Y-53901471D01*
X247171902Y-53982284D01*
X247171902Y-54090033D01*
X247118027Y-54197783D01*
X246983340Y-54332470D01*
X219513096Y-65031218D02*
X219432284Y-65058155D01*
X219351471Y-65138967D01*
X219297597Y-65246717D01*
X219297597Y-65354467D01*
X219324534Y-65435279D01*
X219405346Y-65569966D01*
X219486158Y-65650778D01*
X219620845Y-65731590D01*
X219701658Y-65758528D01*
X219809407Y-65758528D01*
X219917157Y-65704653D01*
X219971032Y-65650778D01*
X220024906Y-65543028D01*
X220024906Y-65489154D01*
X219836345Y-65300592D01*
X219728595Y-65408341D01*
X220321218Y-65300592D02*
X219755532Y-64734906D01*
X219971032Y-64519407D01*
X220051844Y-64492470D01*
X220105719Y-64492470D01*
X220186531Y-64519407D01*
X220267343Y-64600219D01*
X220294280Y-64681032D01*
X220294280Y-64734906D01*
X220267343Y-64815719D01*
X220051844Y-65031218D01*
X220913841Y-64707969D02*
X221021590Y-64600219D01*
X221048528Y-64519407D01*
X221048528Y-64465532D01*
X221021590Y-64330845D01*
X220940778Y-64196158D01*
X220725279Y-63980659D01*
X220644467Y-63953722D01*
X220590592Y-63953722D01*
X220509780Y-63980659D01*
X220402030Y-64088409D01*
X220375093Y-64169221D01*
X220375093Y-64223096D01*
X220402030Y-64303908D01*
X220536717Y-64438595D01*
X220617529Y-64465532D01*
X220671404Y-64465532D01*
X220752216Y-64438595D01*
X220859966Y-64330845D01*
X220886903Y-64250033D01*
X220886903Y-64196158D01*
X220859966Y-64115346D01*
X219513096Y-47251218D02*
X219432284Y-47278155D01*
X219351471Y-47358967D01*
X219297597Y-47466717D01*
X219297597Y-47574467D01*
X219324534Y-47655279D01*
X219405346Y-47789966D01*
X219486158Y-47870778D01*
X219620845Y-47951590D01*
X219701658Y-47978528D01*
X219809407Y-47978528D01*
X219917157Y-47924653D01*
X219971032Y-47870778D01*
X220024906Y-47763028D01*
X220024906Y-47709154D01*
X219836345Y-47520592D01*
X219728595Y-47628341D01*
X220321218Y-47520592D02*
X219755532Y-46954906D01*
X219971032Y-46739407D01*
X220051844Y-46712470D01*
X220105719Y-46712470D01*
X220186531Y-46739407D01*
X220267343Y-46820219D01*
X220294280Y-46901032D01*
X220294280Y-46954906D01*
X220267343Y-47035719D01*
X220051844Y-47251218D01*
X220267343Y-46443096D02*
X220617529Y-46092910D01*
X220644467Y-46496971D01*
X220725279Y-46416158D01*
X220806091Y-46389221D01*
X220859966Y-46389221D01*
X220940778Y-46416158D01*
X221075465Y-46550845D01*
X221102402Y-46631658D01*
X221102402Y-46685532D01*
X221075465Y-46766345D01*
X220913841Y-46927969D01*
X220833028Y-46954906D01*
X220779154Y-46954906D01*
X219513096Y-62491218D02*
X219432284Y-62518155D01*
X219351471Y-62598967D01*
X219297597Y-62706717D01*
X219297597Y-62814467D01*
X219324534Y-62895279D01*
X219405346Y-63029966D01*
X219486158Y-63110778D01*
X219620845Y-63191590D01*
X219701658Y-63218528D01*
X219809407Y-63218528D01*
X219917157Y-63164653D01*
X219971032Y-63110778D01*
X220024906Y-63003028D01*
X220024906Y-62949154D01*
X219836345Y-62760592D01*
X219728595Y-62868341D01*
X220321218Y-62760592D02*
X219755532Y-62194906D01*
X219971032Y-61979407D01*
X220051844Y-61952470D01*
X220105719Y-61952470D01*
X220186531Y-61979407D01*
X220267343Y-62060219D01*
X220294280Y-62141032D01*
X220294280Y-62194906D01*
X220267343Y-62275719D01*
X220051844Y-62491218D01*
X220644467Y-61790845D02*
X220563654Y-61817783D01*
X220509780Y-61817783D01*
X220428967Y-61790845D01*
X220402030Y-61763908D01*
X220375093Y-61683096D01*
X220375093Y-61629221D01*
X220402030Y-61548409D01*
X220509780Y-61440659D01*
X220590592Y-61413722D01*
X220644467Y-61413722D01*
X220725279Y-61440659D01*
X220752216Y-61467597D01*
X220779154Y-61548409D01*
X220779154Y-61602284D01*
X220752216Y-61683096D01*
X220644467Y-61790845D01*
X220617529Y-61871658D01*
X220617529Y-61925532D01*
X220644467Y-62006345D01*
X220752216Y-62114094D01*
X220833028Y-62141032D01*
X220886903Y-62141032D01*
X220967715Y-62114094D01*
X221075465Y-62006345D01*
X221102402Y-61925532D01*
X221102402Y-61871658D01*
X221075465Y-61790845D01*
X220967715Y-61683096D01*
X220886903Y-61656158D01*
X220833028Y-61656158D01*
X220752216Y-61683096D01*
X219513096Y-52331218D02*
X219432284Y-52358155D01*
X219351471Y-52438967D01*
X219297597Y-52546717D01*
X219297597Y-52654467D01*
X219324534Y-52735279D01*
X219405346Y-52869966D01*
X219486158Y-52950778D01*
X219620845Y-53031590D01*
X219701658Y-53058528D01*
X219809407Y-53058528D01*
X219917157Y-53004653D01*
X219971032Y-52950778D01*
X220024906Y-52843028D01*
X220024906Y-52789154D01*
X219836345Y-52600592D01*
X219728595Y-52708341D01*
X220321218Y-52600592D02*
X219755532Y-52034906D01*
X219971032Y-51819407D01*
X220051844Y-51792470D01*
X220105719Y-51792470D01*
X220186531Y-51819407D01*
X220267343Y-51900219D01*
X220294280Y-51981032D01*
X220294280Y-52034906D01*
X220267343Y-52115719D01*
X220051844Y-52331218D01*
X220590592Y-51199847D02*
X220321218Y-51469221D01*
X220563654Y-51765532D01*
X220563654Y-51711658D01*
X220590592Y-51630845D01*
X220725279Y-51496158D01*
X220806091Y-51469221D01*
X220859966Y-51469221D01*
X220940778Y-51496158D01*
X221075465Y-51630845D01*
X221102402Y-51711658D01*
X221102402Y-51765532D01*
X221075465Y-51846345D01*
X220940778Y-51981032D01*
X220859966Y-52007969D01*
X220806091Y-52007969D01*
X244953129Y-37627309D02*
X245707377Y-38004433D01*
X245330253Y-37250186D01*
X245976751Y-37142436D02*
X246084500Y-37088561D01*
X246138375Y-37088561D01*
X246219187Y-37115499D01*
X246300000Y-37196311D01*
X246326937Y-37277123D01*
X246326937Y-37330998D01*
X246300000Y-37411810D01*
X246084500Y-37627309D01*
X245518815Y-37061624D01*
X245707377Y-36873062D01*
X245788189Y-36846125D01*
X245842064Y-36846125D01*
X245922876Y-36873062D01*
X245976751Y-36926937D01*
X246003688Y-37007749D01*
X246003688Y-37061624D01*
X245976751Y-37142436D01*
X245788189Y-37330998D01*
X246084500Y-36495938D02*
X246542436Y-36953874D01*
X246623248Y-36980812D01*
X246677123Y-36980812D01*
X246757935Y-36953874D01*
X246865685Y-36846125D01*
X246892622Y-36765312D01*
X246892622Y-36711438D01*
X246865685Y-36630625D01*
X246407749Y-36172690D01*
X247188934Y-36469001D02*
X247296683Y-36415126D01*
X247431370Y-36280439D01*
X247458308Y-36199627D01*
X247458308Y-36145752D01*
X247431370Y-36064940D01*
X247377496Y-36011065D01*
X247296683Y-35984128D01*
X247242809Y-35984128D01*
X247161996Y-36011065D01*
X247027309Y-36091877D01*
X246946497Y-36118815D01*
X246892622Y-36118815D01*
X246811810Y-36091877D01*
X246757935Y-36038003D01*
X246730998Y-35957190D01*
X246730998Y-35903316D01*
X246757935Y-35822503D01*
X246892622Y-35687816D01*
X247000372Y-35633942D01*
X245154788Y-50633773D02*
X245424162Y-50364399D01*
X245262537Y-50849272D02*
X244885414Y-50095025D01*
X245639661Y-50472149D01*
X245828223Y-50283587D02*
X245262537Y-49717902D01*
X245397224Y-49583215D01*
X245504974Y-49529340D01*
X245612723Y-49529340D01*
X245693536Y-49556277D01*
X245828223Y-49637089D01*
X245909035Y-49717902D01*
X245989847Y-49852589D01*
X246016784Y-49933401D01*
X246016784Y-50041150D01*
X245962910Y-50148900D01*
X245828223Y-50283587D01*
X246663282Y-49340778D02*
X246663282Y-49394653D01*
X246609407Y-49502402D01*
X246555532Y-49556277D01*
X246447783Y-49610152D01*
X246340033Y-49610152D01*
X246259221Y-49583215D01*
X246124534Y-49502402D01*
X246043722Y-49421590D01*
X245962910Y-49286903D01*
X245935972Y-49206091D01*
X245935972Y-49098341D01*
X245989847Y-48990592D01*
X246043722Y-48936717D01*
X246151471Y-48882842D01*
X246205346Y-48882842D01*
X246878781Y-49340778D02*
X247309780Y-48909780D01*
X246744094Y-48236345D02*
X247498341Y-48613468D01*
X247121218Y-47859221D01*
X248198714Y-47913096D02*
X247740778Y-47832284D01*
X247875465Y-48236345D02*
X247309780Y-47670659D01*
X247525279Y-47455160D01*
X247606091Y-47428223D01*
X247659966Y-47428223D01*
X247740778Y-47455160D01*
X247821590Y-47535972D01*
X247848528Y-47616784D01*
X247848528Y-47670659D01*
X247821590Y-47751471D01*
X247606091Y-47966971D01*
X248144839Y-47374348D02*
X248333401Y-47185786D01*
X248710524Y-47401285D02*
X248441150Y-47670659D01*
X247875465Y-47104974D01*
X248144839Y-46835600D01*
X248845211Y-46673975D02*
X248656650Y-46862537D01*
X248952961Y-47158849D02*
X248387276Y-46593163D01*
X248656650Y-46323789D01*
X219513096Y-37091218D02*
X219432284Y-37118155D01*
X219351471Y-37198967D01*
X219297597Y-37306717D01*
X219297597Y-37414467D01*
X219324534Y-37495279D01*
X219405346Y-37629966D01*
X219486158Y-37710778D01*
X219620845Y-37791590D01*
X219701658Y-37818528D01*
X219809407Y-37818528D01*
X219917157Y-37764653D01*
X219971032Y-37710778D01*
X220024906Y-37603028D01*
X220024906Y-37549154D01*
X219836345Y-37360592D01*
X219728595Y-37468341D01*
X220321218Y-37360592D02*
X219755532Y-36794906D01*
X219971032Y-36579407D01*
X220051844Y-36552470D01*
X220105719Y-36552470D01*
X220186531Y-36579407D01*
X220267343Y-36660219D01*
X220294280Y-36741032D01*
X220294280Y-36794906D01*
X220267343Y-36875719D01*
X220051844Y-37091218D01*
X220428967Y-36121471D02*
X220482842Y-36067597D01*
X220563654Y-36040659D01*
X220617529Y-36040659D01*
X220698341Y-36067597D01*
X220833028Y-36148409D01*
X220967715Y-36283096D01*
X221048528Y-36417783D01*
X221075465Y-36498595D01*
X221075465Y-36552470D01*
X221048528Y-36633282D01*
X220994653Y-36687157D01*
X220913841Y-36714094D01*
X220859966Y-36714094D01*
X220779154Y-36687157D01*
X220644467Y-36606345D01*
X220509780Y-36471658D01*
X220428967Y-36336971D01*
X220402030Y-36256158D01*
X220402030Y-36202284D01*
X220428967Y-36121471D01*
X238966158Y-67968155D02*
X238885346Y-67995093D01*
X238804534Y-68075905D01*
X238750659Y-68183654D01*
X238750659Y-68291404D01*
X238777597Y-68372216D01*
X238858409Y-68506903D01*
X238939221Y-68587715D01*
X239073908Y-68668528D01*
X239154720Y-68695465D01*
X239262470Y-68695465D01*
X239370219Y-68641590D01*
X239424094Y-68587715D01*
X239477969Y-68479966D01*
X239477969Y-68426091D01*
X239289407Y-68237529D01*
X239181658Y-68345279D01*
X239774280Y-68237529D02*
X239208595Y-67671844D01*
X240097529Y-67914280D01*
X239531844Y-67348595D01*
X240366903Y-67644906D02*
X239801218Y-67079221D01*
X239935905Y-66944534D01*
X240043654Y-66890659D01*
X240151404Y-66890659D01*
X240232216Y-66917597D01*
X240366903Y-66998409D01*
X240447715Y-67079221D01*
X240528528Y-67213908D01*
X240555465Y-67294720D01*
X240555465Y-67402470D01*
X240501590Y-67510219D01*
X240366903Y-67644906D01*
X218989722Y-85620592D02*
X218908910Y-85647529D01*
X218828097Y-85728341D01*
X218774223Y-85836091D01*
X218774223Y-85943841D01*
X218801160Y-86024653D01*
X218881972Y-86159340D01*
X218962784Y-86240152D01*
X219097471Y-86320964D01*
X219178284Y-86347902D01*
X219286033Y-86347902D01*
X219393783Y-86294027D01*
X219447658Y-86240152D01*
X219501532Y-86132402D01*
X219501532Y-86078528D01*
X219312971Y-85889966D01*
X219205221Y-85997715D01*
X219797844Y-85889966D02*
X219232158Y-85324280D01*
X219447658Y-85108781D01*
X219528470Y-85081844D01*
X219582345Y-85081844D01*
X219663157Y-85108781D01*
X219743969Y-85189593D01*
X219770906Y-85270406D01*
X219770906Y-85324280D01*
X219743969Y-85405093D01*
X219528470Y-85620592D01*
X220659841Y-85027969D02*
X220336592Y-85351218D01*
X220498216Y-85189593D02*
X219932531Y-84623908D01*
X219959468Y-84758595D01*
X219959468Y-84866345D01*
X219932531Y-84947157D01*
X220605966Y-83950473D02*
X220336592Y-84219847D01*
X220579028Y-84516158D01*
X220579028Y-84462284D01*
X220605966Y-84381471D01*
X220740653Y-84246784D01*
X220821465Y-84219847D01*
X220875340Y-84219847D01*
X220956152Y-84246784D01*
X221090839Y-84381471D01*
X221117776Y-84462284D01*
X221117776Y-84516158D01*
X221090839Y-84596971D01*
X220956152Y-84731658D01*
X220875340Y-84758595D01*
X220821465Y-84758595D01*
X245097722Y-83080592D02*
X245016910Y-83107529D01*
X244936097Y-83188341D01*
X244882223Y-83296091D01*
X244882223Y-83403841D01*
X244909160Y-83484653D01*
X244989972Y-83619340D01*
X245070784Y-83700152D01*
X245205471Y-83780964D01*
X245286284Y-83807902D01*
X245394033Y-83807902D01*
X245501783Y-83754027D01*
X245555658Y-83700152D01*
X245609532Y-83592402D01*
X245609532Y-83538528D01*
X245420971Y-83349966D01*
X245313221Y-83457715D01*
X245905844Y-83349966D02*
X245340158Y-82784280D01*
X245555658Y-82568781D01*
X245636470Y-82541844D01*
X245690345Y-82541844D01*
X245771157Y-82568781D01*
X245851969Y-82649593D01*
X245878906Y-82730406D01*
X245878906Y-82784280D01*
X245851969Y-82865093D01*
X245636470Y-83080592D01*
X246767841Y-82487969D02*
X246444592Y-82811218D01*
X246606216Y-82649593D02*
X246040531Y-82083908D01*
X246067468Y-82218595D01*
X246067468Y-82326345D01*
X246040531Y-82407157D01*
X246390717Y-81733722D02*
X246767841Y-81356598D01*
X247091089Y-82164720D01*
X219486158Y-67598155D02*
X219405346Y-67625093D01*
X219324534Y-67705905D01*
X219270659Y-67813654D01*
X219270659Y-67921404D01*
X219297597Y-68002216D01*
X219378409Y-68136903D01*
X219459221Y-68217715D01*
X219593908Y-68298528D01*
X219674720Y-68325465D01*
X219782470Y-68325465D01*
X219890219Y-68271590D01*
X219944094Y-68217715D01*
X219997969Y-68109966D01*
X219997969Y-68056091D01*
X219809407Y-67867529D01*
X219701658Y-67975279D01*
X220294280Y-67867529D02*
X219728595Y-67301844D01*
X220617529Y-67544280D01*
X220051844Y-66978595D01*
X220886903Y-67274906D02*
X220321218Y-66709221D01*
X220455905Y-66574534D01*
X220563654Y-66520659D01*
X220671404Y-66520659D01*
X220752216Y-66547597D01*
X220886903Y-66628409D01*
X220967715Y-66709221D01*
X221048528Y-66843908D01*
X221075465Y-66924720D01*
X221075465Y-67032470D01*
X221021590Y-67140219D01*
X220886903Y-67274906D01*
X244922131Y-45058308D02*
X245272317Y-44708122D01*
X245299255Y-45112183D01*
X245380067Y-45031370D01*
X245460879Y-45004433D01*
X245514754Y-45004433D01*
X245595566Y-45031370D01*
X245730253Y-45166057D01*
X245757190Y-45246870D01*
X245757190Y-45300744D01*
X245730253Y-45381557D01*
X245568629Y-45543181D01*
X245487816Y-45570118D01*
X245433942Y-45570118D01*
X245433942Y-44546497D02*
X246188189Y-44923621D01*
X245811065Y-44169374D01*
X245945752Y-44034687D02*
X246295938Y-43684500D01*
X246322876Y-44088561D01*
X246403688Y-44007749D01*
X246484500Y-43980812D01*
X246538375Y-43980812D01*
X246619187Y-44007749D01*
X246753874Y-44142436D01*
X246780812Y-44223248D01*
X246780812Y-44277123D01*
X246753874Y-44357935D01*
X246592250Y-44519560D01*
X246511438Y-44546497D01*
X246457563Y-44546497D01*
X247023248Y-44196311D02*
X247454247Y-43765312D01*
X247238748Y-43280439D02*
X247427309Y-43091877D01*
X247804433Y-43307377D02*
X247535059Y-43576751D01*
X246969374Y-43011065D01*
X247238748Y-42741691D01*
X248046870Y-43064940D02*
X247481184Y-42499255D01*
X248370118Y-42741691D01*
X247804433Y-42176006D01*
X246689966Y-41159526D02*
X247067089Y-40405279D01*
X246312842Y-40782402D01*
X246689966Y-40082030D02*
X246636091Y-39974280D01*
X246501404Y-39839593D01*
X246420592Y-39812656D01*
X246366717Y-39812656D01*
X246285905Y-39839593D01*
X246232030Y-39893468D01*
X246205093Y-39974280D01*
X246205093Y-40028155D01*
X246232030Y-40108967D01*
X246312842Y-40243654D01*
X246339780Y-40324467D01*
X246339780Y-40378341D01*
X246312842Y-40459154D01*
X246258967Y-40513028D01*
X246178155Y-40539966D01*
X246124280Y-40539966D01*
X246043468Y-40513028D01*
X245908781Y-40378341D01*
X245854906Y-40270592D01*
X245774094Y-39651032D02*
X246043468Y-39381658D01*
X245666345Y-40135905D02*
X245774094Y-39651032D01*
X245289221Y-39758781D01*
X245666345Y-39058409D02*
X245612470Y-38950659D01*
X245477783Y-38815972D01*
X245396971Y-38789035D01*
X245343096Y-38789035D01*
X245262284Y-38815972D01*
X245208409Y-38869847D01*
X245181471Y-38950659D01*
X245181471Y-39004534D01*
X245208409Y-39085346D01*
X245289221Y-39220033D01*
X245316158Y-39300845D01*
X245316158Y-39354720D01*
X245289221Y-39435532D01*
X245235346Y-39489407D01*
X245154534Y-39516345D01*
X245100659Y-39516345D01*
X245019847Y-39489407D01*
X244885160Y-39354720D01*
X244831285Y-39246971D01*
X219513096Y-57411218D02*
X219432284Y-57438155D01*
X219351471Y-57518967D01*
X219297597Y-57626717D01*
X219297597Y-57734467D01*
X219324534Y-57815279D01*
X219405346Y-57949966D01*
X219486158Y-58030778D01*
X219620845Y-58111590D01*
X219701658Y-58138528D01*
X219809407Y-58138528D01*
X219917157Y-58084653D01*
X219971032Y-58030778D01*
X220024906Y-57923028D01*
X220024906Y-57869154D01*
X219836345Y-57680592D01*
X219728595Y-57788341D01*
X220321218Y-57680592D02*
X219755532Y-57114906D01*
X219971032Y-56899407D01*
X220051844Y-56872470D01*
X220105719Y-56872470D01*
X220186531Y-56899407D01*
X220267343Y-56980219D01*
X220294280Y-57061032D01*
X220294280Y-57114906D01*
X220267343Y-57195719D01*
X220051844Y-57411218D01*
X220563654Y-56306784D02*
X220455905Y-56414534D01*
X220428967Y-56495346D01*
X220428967Y-56549221D01*
X220455905Y-56683908D01*
X220536717Y-56818595D01*
X220752216Y-57034094D01*
X220833028Y-57061032D01*
X220886903Y-57061032D01*
X220967715Y-57034094D01*
X221075465Y-56926345D01*
X221102402Y-56845532D01*
X221102402Y-56791658D01*
X221075465Y-56710845D01*
X220940778Y-56576158D01*
X220859966Y-56549221D01*
X220806091Y-56549221D01*
X220725279Y-56576158D01*
X220617529Y-56683908D01*
X220590592Y-56764720D01*
X220590592Y-56818595D01*
X220617529Y-56899407D01*
X219486158Y-42198155D02*
X219405346Y-42225093D01*
X219324534Y-42305905D01*
X219270659Y-42413654D01*
X219270659Y-42521404D01*
X219297597Y-42602216D01*
X219378409Y-42736903D01*
X219459221Y-42817715D01*
X219593908Y-42898528D01*
X219674720Y-42925465D01*
X219782470Y-42925465D01*
X219890219Y-42871590D01*
X219944094Y-42817715D01*
X219997969Y-42709966D01*
X219997969Y-42656091D01*
X219809407Y-42467529D01*
X219701658Y-42575279D01*
X220294280Y-42467529D02*
X219728595Y-41901844D01*
X220617529Y-42144280D01*
X220051844Y-41578595D01*
X220886903Y-41874906D02*
X220321218Y-41309221D01*
X220455905Y-41174534D01*
X220563654Y-41120659D01*
X220671404Y-41120659D01*
X220752216Y-41147597D01*
X220886903Y-41228409D01*
X220967715Y-41309221D01*
X221048528Y-41443908D01*
X221075465Y-41524720D01*
X221075465Y-41632470D01*
X221021590Y-41740219D01*
X220886903Y-41874906D01*
X219486158Y-80298155D02*
X219405346Y-80325093D01*
X219324534Y-80405905D01*
X219270659Y-80513654D01*
X219270659Y-80621404D01*
X219297597Y-80702216D01*
X219378409Y-80836903D01*
X219459221Y-80917715D01*
X219593908Y-80998528D01*
X219674720Y-81025465D01*
X219782470Y-81025465D01*
X219890219Y-80971590D01*
X219944094Y-80917715D01*
X219997969Y-80809966D01*
X219997969Y-80756091D01*
X219809407Y-80567529D01*
X219701658Y-80675279D01*
X220294280Y-80567529D02*
X219728595Y-80001844D01*
X220617529Y-80244280D01*
X220051844Y-79678595D01*
X220886903Y-79974906D02*
X220321218Y-79409221D01*
X220455905Y-79274534D01*
X220563654Y-79220659D01*
X220671404Y-79220659D01*
X220752216Y-79247597D01*
X220886903Y-79328409D01*
X220967715Y-79409221D01*
X221048528Y-79543908D01*
X221075465Y-79624720D01*
X221075465Y-79732470D01*
X221021590Y-79840219D01*
X220886903Y-79974906D01*
X219413096Y-39621218D02*
X219332284Y-39648155D01*
X219251471Y-39728967D01*
X219197597Y-39836717D01*
X219197597Y-39944467D01*
X219224534Y-40025279D01*
X219305346Y-40159966D01*
X219386158Y-40240778D01*
X219520845Y-40321590D01*
X219601658Y-40348528D01*
X219709407Y-40348528D01*
X219817157Y-40294653D01*
X219871032Y-40240778D01*
X219924906Y-40133028D01*
X219924906Y-40079154D01*
X219736345Y-39890592D01*
X219628595Y-39998341D01*
X220221218Y-39890592D02*
X219655532Y-39324906D01*
X219871032Y-39109407D01*
X219951844Y-39082470D01*
X220005719Y-39082470D01*
X220086531Y-39109407D01*
X220167343Y-39190219D01*
X220194280Y-39271032D01*
X220194280Y-39324906D01*
X220167343Y-39405719D01*
X219951844Y-39621218D01*
X221083215Y-39028595D02*
X220759966Y-39351844D01*
X220921590Y-39190219D02*
X220355905Y-38624534D01*
X220382842Y-38759221D01*
X220382842Y-38866971D01*
X220355905Y-38947783D01*
X218989722Y-78000592D02*
X218908910Y-78027529D01*
X218828097Y-78108341D01*
X218774223Y-78216091D01*
X218774223Y-78323841D01*
X218801160Y-78404653D01*
X218881972Y-78539340D01*
X218962784Y-78620152D01*
X219097471Y-78700964D01*
X219178284Y-78727902D01*
X219286033Y-78727902D01*
X219393783Y-78674027D01*
X219447658Y-78620152D01*
X219501532Y-78512402D01*
X219501532Y-78458528D01*
X219312971Y-78269966D01*
X219205221Y-78377715D01*
X219797844Y-78269966D02*
X219232158Y-77704280D01*
X219447658Y-77488781D01*
X219528470Y-77461844D01*
X219582345Y-77461844D01*
X219663157Y-77488781D01*
X219743969Y-77569593D01*
X219770906Y-77650406D01*
X219770906Y-77704280D01*
X219743969Y-77785093D01*
X219528470Y-78000592D01*
X220659841Y-77407969D02*
X220336592Y-77731218D01*
X220498216Y-77569593D02*
X219932531Y-77003908D01*
X219959468Y-77138595D01*
X219959468Y-77246345D01*
X219932531Y-77327157D01*
X220282717Y-76653722D02*
X220632903Y-76303536D01*
X220659841Y-76707597D01*
X220740653Y-76626784D01*
X220821465Y-76599847D01*
X220875340Y-76599847D01*
X220956152Y-76626784D01*
X221090839Y-76761471D01*
X221117776Y-76842284D01*
X221117776Y-76896158D01*
X221090839Y-76976971D01*
X220929215Y-77138595D01*
X220848402Y-77165532D01*
X220794528Y-77165532D01*
X238353722Y-65990592D02*
X238272910Y-66017529D01*
X238192097Y-66098341D01*
X238138223Y-66206091D01*
X238138223Y-66313841D01*
X238165160Y-66394653D01*
X238245972Y-66529340D01*
X238326784Y-66610152D01*
X238461471Y-66690964D01*
X238542284Y-66717902D01*
X238650033Y-66717902D01*
X238757783Y-66664027D01*
X238811658Y-66610152D01*
X238865532Y-66502402D01*
X238865532Y-66448528D01*
X238676971Y-66259966D01*
X238569221Y-66367715D01*
X239161844Y-66259966D02*
X238596158Y-65694280D01*
X238811658Y-65478781D01*
X238892470Y-65451844D01*
X238946345Y-65451844D01*
X239027157Y-65478781D01*
X239107969Y-65559593D01*
X239134906Y-65640406D01*
X239134906Y-65694280D01*
X239107969Y-65775093D01*
X238892470Y-65990592D01*
X239188781Y-65209407D02*
X239188781Y-65155532D01*
X239215719Y-65074720D01*
X239350406Y-64940033D01*
X239431218Y-64913096D01*
X239485093Y-64913096D01*
X239565905Y-64940033D01*
X239619780Y-64993908D01*
X239673654Y-65101658D01*
X239673654Y-65748155D01*
X240023841Y-65397969D01*
X239727529Y-64670659D02*
X239727529Y-64616784D01*
X239754467Y-64535972D01*
X239889154Y-64401285D01*
X239969966Y-64374348D01*
X240023841Y-64374348D01*
X240104653Y-64401285D01*
X240158528Y-64455160D01*
X240212402Y-64562910D01*
X240212402Y-65209407D01*
X240562589Y-64859221D01*
X236904761Y-87623809D02*
X237019047Y-87661904D01*
X237209523Y-87661904D01*
X237285714Y-87623809D01*
X237323809Y-87585714D01*
X237361904Y-87509523D01*
X237361904Y-87433333D01*
X237323809Y-87357142D01*
X237285714Y-87319047D01*
X237209523Y-87280952D01*
X237057142Y-87242857D01*
X236980952Y-87204761D01*
X236942857Y-87166666D01*
X236904761Y-87090476D01*
X236904761Y-87014285D01*
X236942857Y-86938095D01*
X236980952Y-86900000D01*
X237057142Y-86861904D01*
X237247619Y-86861904D01*
X237361904Y-86900000D01*
X237628571Y-86861904D02*
X237819047Y-87661904D01*
X237971428Y-87090476D01*
X238123809Y-87661904D01*
X238314285Y-86861904D01*
X238619047Y-87661904D02*
X238619047Y-86861904D01*
X238809523Y-86861904D01*
X238923809Y-86900000D01*
X239000000Y-86976190D01*
X239038095Y-87052380D01*
X239076190Y-87204761D01*
X239076190Y-87319047D01*
X239038095Y-87471428D01*
X239000000Y-87547619D01*
X238923809Y-87623809D01*
X238809523Y-87661904D01*
X238619047Y-87661904D01*
X239419047Y-87661904D02*
X239419047Y-86861904D01*
X239952380Y-86861904D02*
X240104761Y-86861904D01*
X240180952Y-86900000D01*
X240257142Y-86976190D01*
X240295238Y-87128571D01*
X240295238Y-87395238D01*
X240257142Y-87547619D01*
X240180952Y-87623809D01*
X240104761Y-87661904D01*
X239952380Y-87661904D01*
X239876190Y-87623809D01*
X239800000Y-87547619D01*
X239761904Y-87395238D01*
X239761904Y-87128571D01*
X239800000Y-86976190D01*
X239876190Y-86900000D01*
X239952380Y-86861904D01*
X238263722Y-71020592D02*
X238182910Y-71047529D01*
X238102097Y-71128341D01*
X238048223Y-71236091D01*
X238048223Y-71343841D01*
X238075160Y-71424653D01*
X238155972Y-71559340D01*
X238236784Y-71640152D01*
X238371471Y-71720964D01*
X238452284Y-71747902D01*
X238560033Y-71747902D01*
X238667783Y-71694027D01*
X238721658Y-71640152D01*
X238775532Y-71532402D01*
X238775532Y-71478528D01*
X238586971Y-71289966D01*
X238479221Y-71397715D01*
X239071844Y-71289966D02*
X238506158Y-70724280D01*
X238721658Y-70508781D01*
X238802470Y-70481844D01*
X238856345Y-70481844D01*
X238937157Y-70508781D01*
X239017969Y-70589593D01*
X239044906Y-70670406D01*
X239044906Y-70724280D01*
X239017969Y-70805093D01*
X238802470Y-71020592D01*
X239098781Y-70239407D02*
X239098781Y-70185532D01*
X239125719Y-70104720D01*
X239260406Y-69970033D01*
X239341218Y-69943096D01*
X239395093Y-69943096D01*
X239475905Y-69970033D01*
X239529780Y-70023908D01*
X239583654Y-70131658D01*
X239583654Y-70778155D01*
X239933841Y-70427969D01*
X240472589Y-69889221D02*
X240149340Y-70212470D01*
X240310964Y-70050845D02*
X239745279Y-69485160D01*
X239772216Y-69619847D01*
X239772216Y-69727597D01*
X239745279Y-69808409D01*
X218843722Y-75460592D02*
X218762910Y-75487529D01*
X218682097Y-75568341D01*
X218628223Y-75676091D01*
X218628223Y-75783841D01*
X218655160Y-75864653D01*
X218735972Y-75999340D01*
X218816784Y-76080152D01*
X218951471Y-76160964D01*
X219032284Y-76187902D01*
X219140033Y-76187902D01*
X219247783Y-76134027D01*
X219301658Y-76080152D01*
X219355532Y-75972402D01*
X219355532Y-75918528D01*
X219166971Y-75729966D01*
X219059221Y-75837715D01*
X219651844Y-75729966D02*
X219086158Y-75164280D01*
X219301658Y-74948781D01*
X219382470Y-74921844D01*
X219436345Y-74921844D01*
X219517157Y-74948781D01*
X219597969Y-75029593D01*
X219624906Y-75110406D01*
X219624906Y-75164280D01*
X219597969Y-75245093D01*
X219382470Y-75460592D01*
X220513841Y-74867969D02*
X220190592Y-75191218D01*
X220352216Y-75029593D02*
X219786531Y-74463908D01*
X219813468Y-74598595D01*
X219813468Y-74706345D01*
X219786531Y-74787157D01*
X220217529Y-74140659D02*
X220217529Y-74086784D01*
X220244467Y-74005972D01*
X220379154Y-73871285D01*
X220459966Y-73844348D01*
X220513841Y-73844348D01*
X220594653Y-73871285D01*
X220648528Y-73925160D01*
X220702402Y-74032910D01*
X220702402Y-74679407D01*
X221052589Y-74329221D01*
X219513096Y-49791218D02*
X219432284Y-49818155D01*
X219351471Y-49898967D01*
X219297597Y-50006717D01*
X219297597Y-50114467D01*
X219324534Y-50195279D01*
X219405346Y-50329966D01*
X219486158Y-50410778D01*
X219620845Y-50491590D01*
X219701658Y-50518528D01*
X219809407Y-50518528D01*
X219917157Y-50464653D01*
X219971032Y-50410778D01*
X220024906Y-50303028D01*
X220024906Y-50249154D01*
X219836345Y-50060592D01*
X219728595Y-50168341D01*
X220321218Y-50060592D02*
X219755532Y-49494906D01*
X219971032Y-49279407D01*
X220051844Y-49252470D01*
X220105719Y-49252470D01*
X220186531Y-49279407D01*
X220267343Y-49360219D01*
X220294280Y-49441032D01*
X220294280Y-49494906D01*
X220267343Y-49575719D01*
X220051844Y-49791218D01*
X220752216Y-48875346D02*
X221129340Y-49252470D01*
X220402030Y-48794534D02*
X220671404Y-49333282D01*
X221021590Y-48983096D01*
X245097722Y-78000592D02*
X245016910Y-78027529D01*
X244936097Y-78108341D01*
X244882223Y-78216091D01*
X244882223Y-78323841D01*
X244909160Y-78404653D01*
X244989972Y-78539340D01*
X245070784Y-78620152D01*
X245205471Y-78700964D01*
X245286284Y-78727902D01*
X245394033Y-78727902D01*
X245501783Y-78674027D01*
X245555658Y-78620152D01*
X245609532Y-78512402D01*
X245609532Y-78458528D01*
X245420971Y-78269966D01*
X245313221Y-78377715D01*
X245905844Y-78269966D02*
X245340158Y-77704280D01*
X245555658Y-77488781D01*
X245636470Y-77461844D01*
X245690345Y-77461844D01*
X245771157Y-77488781D01*
X245851969Y-77569593D01*
X245878906Y-77650406D01*
X245878906Y-77704280D01*
X245851969Y-77785093D01*
X245636470Y-78000592D01*
X246767841Y-77407969D02*
X246444592Y-77731218D01*
X246606216Y-77569593D02*
X246040531Y-77003908D01*
X246067468Y-77138595D01*
X246067468Y-77246345D01*
X246040531Y-77327157D01*
X246767841Y-76761471D02*
X246687028Y-76788409D01*
X246633154Y-76788409D01*
X246552341Y-76761471D01*
X246525404Y-76734534D01*
X246498467Y-76653722D01*
X246498467Y-76599847D01*
X246525404Y-76519035D01*
X246633154Y-76411285D01*
X246713966Y-76384348D01*
X246767841Y-76384348D01*
X246848653Y-76411285D01*
X246875590Y-76438223D01*
X246902528Y-76519035D01*
X246902528Y-76572910D01*
X246875590Y-76653722D01*
X246767841Y-76761471D01*
X246740903Y-76842284D01*
X246740903Y-76896158D01*
X246767841Y-76976971D01*
X246875590Y-77084720D01*
X246956402Y-77111658D01*
X247010277Y-77111658D01*
X247091089Y-77084720D01*
X247198839Y-76976971D01*
X247225776Y-76896158D01*
X247225776Y-76842284D01*
X247198839Y-76761471D01*
X247091089Y-76653722D01*
X247010277Y-76626784D01*
X246956402Y-76626784D01*
X246875590Y-76653722D01*
X218943722Y-83080592D02*
X218862910Y-83107529D01*
X218782097Y-83188341D01*
X218728223Y-83296091D01*
X218728223Y-83403841D01*
X218755160Y-83484653D01*
X218835972Y-83619340D01*
X218916784Y-83700152D01*
X219051471Y-83780964D01*
X219132284Y-83807902D01*
X219240033Y-83807902D01*
X219347783Y-83754027D01*
X219401658Y-83700152D01*
X219455532Y-83592402D01*
X219455532Y-83538528D01*
X219266971Y-83349966D01*
X219159221Y-83457715D01*
X219751844Y-83349966D02*
X219186158Y-82784280D01*
X219401658Y-82568781D01*
X219482470Y-82541844D01*
X219536345Y-82541844D01*
X219617157Y-82568781D01*
X219697969Y-82649593D01*
X219724906Y-82730406D01*
X219724906Y-82784280D01*
X219697969Y-82865093D01*
X219482470Y-83080592D01*
X220613841Y-82487969D02*
X220290592Y-82811218D01*
X220452216Y-82649593D02*
X219886531Y-82083908D01*
X219913468Y-82218595D01*
X219913468Y-82326345D01*
X219886531Y-82407157D01*
X220721590Y-81625972D02*
X221098714Y-82003096D01*
X220371404Y-81545160D02*
X220640778Y-82083908D01*
X220990964Y-81733722D01*
X218989722Y-70380592D02*
X218908910Y-70407529D01*
X218828097Y-70488341D01*
X218774223Y-70596091D01*
X218774223Y-70703841D01*
X218801160Y-70784653D01*
X218881972Y-70919340D01*
X218962784Y-71000152D01*
X219097471Y-71080964D01*
X219178284Y-71107902D01*
X219286033Y-71107902D01*
X219393783Y-71054027D01*
X219447658Y-71000152D01*
X219501532Y-70892402D01*
X219501532Y-70838528D01*
X219312971Y-70649966D01*
X219205221Y-70757715D01*
X219797844Y-70649966D02*
X219232158Y-70084280D01*
X219447658Y-69868781D01*
X219528470Y-69841844D01*
X219582345Y-69841844D01*
X219663157Y-69868781D01*
X219743969Y-69949593D01*
X219770906Y-70030406D01*
X219770906Y-70084280D01*
X219743969Y-70165093D01*
X219528470Y-70380592D01*
X220659841Y-69787969D02*
X220336592Y-70111218D01*
X220498216Y-69949593D02*
X219932531Y-69383908D01*
X219959468Y-69518595D01*
X219959468Y-69626345D01*
X219932531Y-69707157D01*
X220444341Y-68872097D02*
X220498216Y-68818223D01*
X220579028Y-68791285D01*
X220632903Y-68791285D01*
X220713715Y-68818223D01*
X220848402Y-68899035D01*
X220983089Y-69033722D01*
X221063902Y-69168409D01*
X221090839Y-69249221D01*
X221090839Y-69303096D01*
X221063902Y-69383908D01*
X221010027Y-69437783D01*
X220929215Y-69464720D01*
X220875340Y-69464720D01*
X220794528Y-69437783D01*
X220659841Y-69356971D01*
X220525154Y-69222284D01*
X220444341Y-69087597D01*
X220417404Y-69006784D01*
X220417404Y-68952910D01*
X220444341Y-68872097D01*
X219486158Y-54898155D02*
X219405346Y-54925093D01*
X219324534Y-55005905D01*
X219270659Y-55113654D01*
X219270659Y-55221404D01*
X219297597Y-55302216D01*
X219378409Y-55436903D01*
X219459221Y-55517715D01*
X219593908Y-55598528D01*
X219674720Y-55625465D01*
X219782470Y-55625465D01*
X219890219Y-55571590D01*
X219944094Y-55517715D01*
X219997969Y-55409966D01*
X219997969Y-55356091D01*
X219809407Y-55167529D01*
X219701658Y-55275279D01*
X220294280Y-55167529D02*
X219728595Y-54601844D01*
X220617529Y-54844280D01*
X220051844Y-54278595D01*
X220886903Y-54574906D02*
X220321218Y-54009221D01*
X220455905Y-53874534D01*
X220563654Y-53820659D01*
X220671404Y-53820659D01*
X220752216Y-53847597D01*
X220886903Y-53928409D01*
X220967715Y-54009221D01*
X221048528Y-54143908D01*
X221075465Y-54224720D01*
X221075465Y-54332470D01*
X221021590Y-54440219D01*
X220886903Y-54574906D01*
X245097722Y-57690592D02*
X245016910Y-57717529D01*
X244936097Y-57798341D01*
X244882223Y-57906091D01*
X244882223Y-58013841D01*
X244909160Y-58094653D01*
X244989972Y-58229340D01*
X245070784Y-58310152D01*
X245205471Y-58390964D01*
X245286284Y-58417902D01*
X245394033Y-58417902D01*
X245501783Y-58364027D01*
X245555658Y-58310152D01*
X245609532Y-58202402D01*
X245609532Y-58148528D01*
X245420971Y-57959966D01*
X245313221Y-58067715D01*
X245905844Y-57959966D02*
X245340158Y-57394280D01*
X245555658Y-57178781D01*
X245636470Y-57151844D01*
X245690345Y-57151844D01*
X245771157Y-57178781D01*
X245851969Y-57259593D01*
X245878906Y-57340406D01*
X245878906Y-57394280D01*
X245851969Y-57475093D01*
X245636470Y-57690592D01*
X245932781Y-56909407D02*
X245932781Y-56855532D01*
X245959719Y-56774720D01*
X246094406Y-56640033D01*
X246175218Y-56613096D01*
X246229093Y-56613096D01*
X246309905Y-56640033D01*
X246363780Y-56693908D01*
X246417654Y-56801658D01*
X246417654Y-57448155D01*
X246767841Y-57097969D01*
X246390717Y-56343722D02*
X246767841Y-55966598D01*
X247091089Y-56774720D01*
X219613096Y-59921218D02*
X219532284Y-59948155D01*
X219451471Y-60028967D01*
X219397597Y-60136717D01*
X219397597Y-60244467D01*
X219424534Y-60325279D01*
X219505346Y-60459966D01*
X219586158Y-60540778D01*
X219720845Y-60621590D01*
X219801658Y-60648528D01*
X219909407Y-60648528D01*
X220017157Y-60594653D01*
X220071032Y-60540778D01*
X220124906Y-60433028D01*
X220124906Y-60379154D01*
X219936345Y-60190592D01*
X219828595Y-60298341D01*
X220421218Y-60190592D02*
X219855532Y-59624906D01*
X220071032Y-59409407D01*
X220151844Y-59382470D01*
X220205719Y-59382470D01*
X220286531Y-59409407D01*
X220367343Y-59490219D01*
X220394280Y-59571032D01*
X220394280Y-59624906D01*
X220367343Y-59705719D01*
X220151844Y-59921218D01*
X220367343Y-59113096D02*
X220744467Y-58735972D01*
X221067715Y-59544094D01*
X245086158Y-80298155D02*
X245005346Y-80325093D01*
X244924534Y-80405905D01*
X244870659Y-80513654D01*
X244870659Y-80621404D01*
X244897597Y-80702216D01*
X244978409Y-80836903D01*
X245059221Y-80917715D01*
X245193908Y-80998528D01*
X245274720Y-81025465D01*
X245382470Y-81025465D01*
X245490219Y-80971590D01*
X245544094Y-80917715D01*
X245597969Y-80809966D01*
X245597969Y-80756091D01*
X245409407Y-80567529D01*
X245301658Y-80675279D01*
X245894280Y-80567529D02*
X245328595Y-80001844D01*
X246217529Y-80244280D01*
X245651844Y-79678595D01*
X246486903Y-79974906D02*
X245921218Y-79409221D01*
X246055905Y-79274534D01*
X246163654Y-79220659D01*
X246271404Y-79220659D01*
X246352216Y-79247597D01*
X246486903Y-79328409D01*
X246567715Y-79409221D01*
X246648528Y-79543908D01*
X246675465Y-79624720D01*
X246675465Y-79732470D01*
X246621590Y-79840219D01*
X246486903Y-79974906D01*
X245097722Y-75460592D02*
X245016910Y-75487529D01*
X244936097Y-75568341D01*
X244882223Y-75676091D01*
X244882223Y-75783841D01*
X244909160Y-75864653D01*
X244989972Y-75999340D01*
X245070784Y-76080152D01*
X245205471Y-76160964D01*
X245286284Y-76187902D01*
X245394033Y-76187902D01*
X245501783Y-76134027D01*
X245555658Y-76080152D01*
X245609532Y-75972402D01*
X245609532Y-75918528D01*
X245420971Y-75729966D01*
X245313221Y-75837715D01*
X245905844Y-75729966D02*
X245340158Y-75164280D01*
X245555658Y-74948781D01*
X245636470Y-74921844D01*
X245690345Y-74921844D01*
X245771157Y-74948781D01*
X245851969Y-75029593D01*
X245878906Y-75110406D01*
X245878906Y-75164280D01*
X245851969Y-75245093D01*
X245636470Y-75460592D01*
X246767841Y-74867969D02*
X246444592Y-75191218D01*
X246606216Y-75029593D02*
X246040531Y-74463908D01*
X246067468Y-74598595D01*
X246067468Y-74706345D01*
X246040531Y-74787157D01*
X247037215Y-74598595D02*
X247144964Y-74490845D01*
X247171902Y-74410033D01*
X247171902Y-74356158D01*
X247144964Y-74221471D01*
X247064152Y-74086784D01*
X246848653Y-73871285D01*
X246767841Y-73844348D01*
X246713966Y-73844348D01*
X246633154Y-73871285D01*
X246525404Y-73979035D01*
X246498467Y-74059847D01*
X246498467Y-74113722D01*
X246525404Y-74194534D01*
X246660091Y-74329221D01*
X246740903Y-74356158D01*
X246794778Y-74356158D01*
X246875590Y-74329221D01*
X246983340Y-74221471D01*
X247010277Y-74140659D01*
X247010277Y-74086784D01*
X246983340Y-74005972D01*
X219413096Y-44711218D02*
X219332284Y-44738155D01*
X219251471Y-44818967D01*
X219197597Y-44926717D01*
X219197597Y-45034467D01*
X219224534Y-45115279D01*
X219305346Y-45249966D01*
X219386158Y-45330778D01*
X219520845Y-45411590D01*
X219601658Y-45438528D01*
X219709407Y-45438528D01*
X219817157Y-45384653D01*
X219871032Y-45330778D01*
X219924906Y-45223028D01*
X219924906Y-45169154D01*
X219736345Y-44980592D01*
X219628595Y-45088341D01*
X220221218Y-44980592D02*
X219655532Y-44414906D01*
X219871032Y-44199407D01*
X219951844Y-44172470D01*
X220005719Y-44172470D01*
X220086531Y-44199407D01*
X220167343Y-44280219D01*
X220194280Y-44361032D01*
X220194280Y-44414906D01*
X220167343Y-44495719D01*
X219951844Y-44711218D01*
X220248155Y-43930033D02*
X220248155Y-43876158D01*
X220275093Y-43795346D01*
X220409780Y-43660659D01*
X220490592Y-43633722D01*
X220544467Y-43633722D01*
X220625279Y-43660659D01*
X220679154Y-43714534D01*
X220733028Y-43822284D01*
X220733028Y-44468781D01*
X221083215Y-44118595D01*
X239408375Y-63413435D02*
X238950439Y-63332622D01*
X239085126Y-63736683D02*
X238519441Y-63170998D01*
X238734940Y-62955499D01*
X238815752Y-62928561D01*
X238869627Y-62928561D01*
X238950439Y-62955499D01*
X239031251Y-63036311D01*
X239058189Y-63117123D01*
X239058189Y-63170998D01*
X239031251Y-63251810D01*
X238815752Y-63467309D01*
X239085126Y-62605312D02*
X239543062Y-63063248D01*
X239623874Y-63090186D01*
X239677749Y-63090186D01*
X239758561Y-63063248D01*
X239866311Y-62955499D01*
X239893248Y-62874687D01*
X239893248Y-62820812D01*
X239866311Y-62739999D01*
X239408375Y-62282064D01*
X240243435Y-62578375D02*
X239677749Y-62012690D01*
X240566683Y-62255126D01*
X240000998Y-61689441D01*
X238433722Y-60940592D02*
X238352910Y-60967529D01*
X238272097Y-61048341D01*
X238218223Y-61156091D01*
X238218223Y-61263841D01*
X238245160Y-61344653D01*
X238325972Y-61479340D01*
X238406784Y-61560152D01*
X238541471Y-61640964D01*
X238622284Y-61667902D01*
X238730033Y-61667902D01*
X238837783Y-61614027D01*
X238891658Y-61560152D01*
X238945532Y-61452402D01*
X238945532Y-61398528D01*
X238756971Y-61209966D01*
X238649221Y-61317715D01*
X239241844Y-61209966D02*
X238676158Y-60644280D01*
X238891658Y-60428781D01*
X238972470Y-60401844D01*
X239026345Y-60401844D01*
X239107157Y-60428781D01*
X239187969Y-60509593D01*
X239214906Y-60590406D01*
X239214906Y-60644280D01*
X239187969Y-60725093D01*
X238972470Y-60940592D01*
X239268781Y-60159407D02*
X239268781Y-60105532D01*
X239295719Y-60024720D01*
X239430406Y-59890033D01*
X239511218Y-59863096D01*
X239565093Y-59863096D01*
X239645905Y-59890033D01*
X239699780Y-59943908D01*
X239753654Y-60051658D01*
X239753654Y-60698155D01*
X240103841Y-60347969D01*
X240023028Y-59297410D02*
X239915279Y-59405160D01*
X239888341Y-59485972D01*
X239888341Y-59539847D01*
X239915279Y-59674534D01*
X239996091Y-59809221D01*
X240211590Y-60024720D01*
X240292402Y-60051658D01*
X240346277Y-60051658D01*
X240427089Y-60024720D01*
X240534839Y-59916971D01*
X240561776Y-59836158D01*
X240561776Y-59782284D01*
X240534839Y-59701471D01*
X240400152Y-59566784D01*
X240319340Y-59539847D01*
X240265465Y-59539847D01*
X240184653Y-59566784D01*
X240076903Y-59674534D01*
X240049966Y-59755346D01*
X240049966Y-59809221D01*
X240076903Y-59890033D01*
X245097722Y-85620592D02*
X245016910Y-85647529D01*
X244936097Y-85728341D01*
X244882223Y-85836091D01*
X244882223Y-85943841D01*
X244909160Y-86024653D01*
X244989972Y-86159340D01*
X245070784Y-86240152D01*
X245205471Y-86320964D01*
X245286284Y-86347902D01*
X245394033Y-86347902D01*
X245501783Y-86294027D01*
X245555658Y-86240152D01*
X245609532Y-86132402D01*
X245609532Y-86078528D01*
X245420971Y-85889966D01*
X245313221Y-85997715D01*
X245905844Y-85889966D02*
X245340158Y-85324280D01*
X245555658Y-85108781D01*
X245636470Y-85081844D01*
X245690345Y-85081844D01*
X245771157Y-85108781D01*
X245851969Y-85189593D01*
X245878906Y-85270406D01*
X245878906Y-85324280D01*
X245851969Y-85405093D01*
X245636470Y-85620592D01*
X246767841Y-85027969D02*
X246444592Y-85351218D01*
X246606216Y-85189593D02*
X246040531Y-84623908D01*
X246067468Y-84758595D01*
X246067468Y-84866345D01*
X246040531Y-84947157D01*
X246687028Y-83977410D02*
X246579279Y-84085160D01*
X246552341Y-84165972D01*
X246552341Y-84219847D01*
X246579279Y-84354534D01*
X246660091Y-84489221D01*
X246875590Y-84704720D01*
X246956402Y-84731658D01*
X247010277Y-84731658D01*
X247091089Y-84704720D01*
X247198839Y-84596971D01*
X247225776Y-84516158D01*
X247225776Y-84462284D01*
X247198839Y-84381471D01*
X247064152Y-84246784D01*
X246983340Y-84219847D01*
X246929465Y-84219847D01*
X246848653Y-84246784D01*
X246740903Y-84354534D01*
X246713966Y-84435346D01*
X246713966Y-84489221D01*
X246740903Y-84570033D01*
X245097722Y-52346592D02*
X245016910Y-52373529D01*
X244936097Y-52454341D01*
X244882223Y-52562091D01*
X244882223Y-52669841D01*
X244909160Y-52750653D01*
X244989972Y-52885340D01*
X245070784Y-52966152D01*
X245205471Y-53046964D01*
X245286284Y-53073902D01*
X245394033Y-53073902D01*
X245501783Y-53020027D01*
X245555658Y-52966152D01*
X245609532Y-52858402D01*
X245609532Y-52804528D01*
X245420971Y-52615966D01*
X245313221Y-52723715D01*
X245905844Y-52615966D02*
X245340158Y-52050280D01*
X245555658Y-51834781D01*
X245636470Y-51807844D01*
X245690345Y-51807844D01*
X245771157Y-51834781D01*
X245851969Y-51915593D01*
X245878906Y-51996406D01*
X245878906Y-52050280D01*
X245851969Y-52131093D01*
X245636470Y-52346592D01*
X245932781Y-51565407D02*
X245932781Y-51511532D01*
X245959719Y-51430720D01*
X246094406Y-51296033D01*
X246175218Y-51269096D01*
X246229093Y-51269096D01*
X246309905Y-51296033D01*
X246363780Y-51349908D01*
X246417654Y-51457658D01*
X246417654Y-52104155D01*
X246767841Y-51753969D01*
X246767841Y-51107471D02*
X246687028Y-51134409D01*
X246633154Y-51134409D01*
X246552341Y-51107471D01*
X246525404Y-51080534D01*
X246498467Y-50999722D01*
X246498467Y-50945847D01*
X246525404Y-50865035D01*
X246633154Y-50757285D01*
X246713966Y-50730348D01*
X246767841Y-50730348D01*
X246848653Y-50757285D01*
X246875590Y-50784223D01*
X246902528Y-50865035D01*
X246902528Y-50918910D01*
X246875590Y-50999722D01*
X246767841Y-51107471D01*
X246740903Y-51188284D01*
X246740903Y-51242158D01*
X246767841Y-51322971D01*
X246875590Y-51430720D01*
X246956402Y-51457658D01*
X247010277Y-51457658D01*
X247091089Y-51430720D01*
X247198839Y-51322971D01*
X247225776Y-51242158D01*
X247225776Y-51188284D01*
X247198839Y-51107471D01*
X247091089Y-50999722D01*
X247010277Y-50972784D01*
X246956402Y-50972784D01*
X246875590Y-50999722D01*
X244889847Y-47590592D02*
X245240033Y-47240406D01*
X245266971Y-47644467D01*
X245347783Y-47563654D01*
X245428595Y-47536717D01*
X245482470Y-47536717D01*
X245563282Y-47563654D01*
X245697969Y-47698341D01*
X245724906Y-47779154D01*
X245724906Y-47833028D01*
X245697969Y-47913841D01*
X245536345Y-48075465D01*
X245455532Y-48102402D01*
X245401658Y-48102402D01*
X245401658Y-47078781D02*
X246155905Y-47455905D01*
X245778781Y-46701658D01*
X245913468Y-46566971D02*
X246263654Y-46216784D01*
X246290592Y-46620845D01*
X246371404Y-46540033D01*
X246452216Y-46513096D01*
X246506091Y-46513096D01*
X246586903Y-46540033D01*
X246721590Y-46674720D01*
X246748528Y-46755532D01*
X246748528Y-46809407D01*
X246721590Y-46890219D01*
X246559966Y-47051844D01*
X246479154Y-47078781D01*
X246425279Y-47078781D01*
%TO.C,SW23*%
X189890476Y-108504761D02*
X190033333Y-108552380D01*
X190271428Y-108552380D01*
X190366666Y-108504761D01*
X190414285Y-108457142D01*
X190461904Y-108361904D01*
X190461904Y-108266666D01*
X190414285Y-108171428D01*
X190366666Y-108123809D01*
X190271428Y-108076190D01*
X190080952Y-108028571D01*
X189985714Y-107980952D01*
X189938095Y-107933333D01*
X189890476Y-107838095D01*
X189890476Y-107742857D01*
X189938095Y-107647619D01*
X189985714Y-107600000D01*
X190080952Y-107552380D01*
X190319047Y-107552380D01*
X190461904Y-107600000D01*
X190795238Y-107552380D02*
X191033333Y-108552380D01*
X191223809Y-107838095D01*
X191414285Y-108552380D01*
X191652380Y-107552380D01*
X191985714Y-107647619D02*
X192033333Y-107600000D01*
X192128571Y-107552380D01*
X192366666Y-107552380D01*
X192461904Y-107600000D01*
X192509523Y-107647619D01*
X192557142Y-107742857D01*
X192557142Y-107838095D01*
X192509523Y-107980952D01*
X191938095Y-108552380D01*
X192557142Y-108552380D01*
X192890476Y-107552380D02*
X193509523Y-107552380D01*
X193176190Y-107933333D01*
X193319047Y-107933333D01*
X193414285Y-107980952D01*
X193461904Y-108028571D01*
X193509523Y-108123809D01*
X193509523Y-108361904D01*
X193461904Y-108457142D01*
X193414285Y-108504761D01*
X193319047Y-108552380D01*
X193033333Y-108552380D01*
X192938095Y-108504761D01*
X192890476Y-108457142D01*
%TO.C,H7*%
X176638095Y-39052380D02*
X176638095Y-38052380D01*
X176638095Y-38528571D02*
X177209523Y-38528571D01*
X177209523Y-39052380D02*
X177209523Y-38052380D01*
X177590476Y-38052380D02*
X178257142Y-38052380D01*
X177828571Y-39052380D01*
%TO.C,SW29*%
X221004761Y-132109523D02*
X221052380Y-131966666D01*
X221052380Y-131728571D01*
X221004761Y-131633333D01*
X220957142Y-131585714D01*
X220861904Y-131538095D01*
X220766666Y-131538095D01*
X220671428Y-131585714D01*
X220623809Y-131633333D01*
X220576190Y-131728571D01*
X220528571Y-131919047D01*
X220480952Y-132014285D01*
X220433333Y-132061904D01*
X220338095Y-132109523D01*
X220242857Y-132109523D01*
X220147619Y-132061904D01*
X220100000Y-132014285D01*
X220052380Y-131919047D01*
X220052380Y-131680952D01*
X220100000Y-131538095D01*
X220052380Y-131204761D02*
X221052380Y-130966666D01*
X220338095Y-130776190D01*
X221052380Y-130585714D01*
X220052380Y-130347619D01*
X220147619Y-130014285D02*
X220100000Y-129966666D01*
X220052380Y-129871428D01*
X220052380Y-129633333D01*
X220100000Y-129538095D01*
X220147619Y-129490476D01*
X220242857Y-129442857D01*
X220338095Y-129442857D01*
X220480952Y-129490476D01*
X221052380Y-130061904D01*
X221052380Y-129442857D01*
X221052380Y-128966666D02*
X221052380Y-128776190D01*
X221004761Y-128680952D01*
X220957142Y-128633333D01*
X220814285Y-128538095D01*
X220623809Y-128490476D01*
X220242857Y-128490476D01*
X220147619Y-128538095D01*
X220100000Y-128585714D01*
X220052380Y-128680952D01*
X220052380Y-128871428D01*
X220100000Y-128966666D01*
X220147619Y-129014285D01*
X220242857Y-129061904D01*
X220480952Y-129061904D01*
X220576190Y-129014285D01*
X220623809Y-128966666D01*
X220671428Y-128871428D01*
X220671428Y-128680952D01*
X220623809Y-128585714D01*
X220576190Y-128538095D01*
X220480952Y-128490476D01*
%TO.C,SW14*%
X132190476Y-90204761D02*
X132333333Y-90252380D01*
X132571428Y-90252380D01*
X132666666Y-90204761D01*
X132714285Y-90157142D01*
X132761904Y-90061904D01*
X132761904Y-89966666D01*
X132714285Y-89871428D01*
X132666666Y-89823809D01*
X132571428Y-89776190D01*
X132380952Y-89728571D01*
X132285714Y-89680952D01*
X132238095Y-89633333D01*
X132190476Y-89538095D01*
X132190476Y-89442857D01*
X132238095Y-89347619D01*
X132285714Y-89300000D01*
X132380952Y-89252380D01*
X132619047Y-89252380D01*
X132761904Y-89300000D01*
X133095238Y-89252380D02*
X133333333Y-90252380D01*
X133523809Y-89538095D01*
X133714285Y-90252380D01*
X133952380Y-89252380D01*
X134857142Y-90252380D02*
X134285714Y-90252380D01*
X134571428Y-90252380D02*
X134571428Y-89252380D01*
X134476190Y-89395238D01*
X134380952Y-89490476D01*
X134285714Y-89538095D01*
X135714285Y-89585714D02*
X135714285Y-90252380D01*
X135476190Y-89204761D02*
X135238095Y-89919047D01*
X135857142Y-89919047D01*
%TO.C,J1*%
X193366666Y-45377380D02*
X193366666Y-46091666D01*
X193319047Y-46234523D01*
X193223809Y-46329761D01*
X193080952Y-46377380D01*
X192985714Y-46377380D01*
X194366666Y-46377380D02*
X193795238Y-46377380D01*
X194080952Y-46377380D02*
X194080952Y-45377380D01*
X193985714Y-45520238D01*
X193890476Y-45615476D01*
X193795238Y-45663095D01*
%TO.C,SW13*%
X103990767Y-90204761D02*
X104133624Y-90252380D01*
X104371719Y-90252380D01*
X104466957Y-90204761D01*
X104514576Y-90157142D01*
X104562195Y-90061904D01*
X104562195Y-89966666D01*
X104514576Y-89871428D01*
X104466957Y-89823809D01*
X104371719Y-89776190D01*
X104181243Y-89728571D01*
X104086005Y-89680952D01*
X104038386Y-89633333D01*
X103990767Y-89538095D01*
X103990767Y-89442857D01*
X104038386Y-89347619D01*
X104086005Y-89300000D01*
X104181243Y-89252380D01*
X104419338Y-89252380D01*
X104562195Y-89300000D01*
X104895529Y-89252380D02*
X105133624Y-90252380D01*
X105324100Y-89538095D01*
X105514576Y-90252380D01*
X105752671Y-89252380D01*
X106657433Y-90252380D02*
X106086005Y-90252380D01*
X106371719Y-90252380D02*
X106371719Y-89252380D01*
X106276481Y-89395238D01*
X106181243Y-89490476D01*
X106086005Y-89538095D01*
X106990767Y-89252380D02*
X107609814Y-89252380D01*
X107276481Y-89633333D01*
X107419338Y-89633333D01*
X107514576Y-89680952D01*
X107562195Y-89728571D01*
X107609814Y-89823809D01*
X107609814Y-90061904D01*
X107562195Y-90157142D01*
X107514576Y-90204761D01*
X107419338Y-90252380D01*
X107133624Y-90252380D01*
X107038386Y-90204761D01*
X106990767Y-90157142D01*
%TO.C,SW6*%
X209466666Y-54004761D02*
X209609523Y-54052380D01*
X209847619Y-54052380D01*
X209942857Y-54004761D01*
X209990476Y-53957142D01*
X210038095Y-53861904D01*
X210038095Y-53766666D01*
X209990476Y-53671428D01*
X209942857Y-53623809D01*
X209847619Y-53576190D01*
X209657142Y-53528571D01*
X209561904Y-53480952D01*
X209514285Y-53433333D01*
X209466666Y-53338095D01*
X209466666Y-53242857D01*
X209514285Y-53147619D01*
X209561904Y-53100000D01*
X209657142Y-53052380D01*
X209895238Y-53052380D01*
X210038095Y-53100000D01*
X210371428Y-53052380D02*
X210609523Y-54052380D01*
X210800000Y-53338095D01*
X210990476Y-54052380D01*
X211228571Y-53052380D01*
X212038095Y-53052380D02*
X211847619Y-53052380D01*
X211752380Y-53100000D01*
X211704761Y-53147619D01*
X211609523Y-53290476D01*
X211561904Y-53480952D01*
X211561904Y-53861904D01*
X211609523Y-53957142D01*
X211657142Y-54004761D01*
X211752380Y-54052380D01*
X211942857Y-54052380D01*
X212038095Y-54004761D01*
X212085714Y-53957142D01*
X212133333Y-53861904D01*
X212133333Y-53623809D01*
X212085714Y-53528571D01*
X212038095Y-53480952D01*
X211942857Y-53433333D01*
X211752380Y-53433333D01*
X211657142Y-53480952D01*
X211609523Y-53528571D01*
X211561904Y-53623809D01*
%TO.C,SW27*%
X176090476Y-126798796D02*
X176233333Y-126846415D01*
X176471428Y-126846415D01*
X176566666Y-126798796D01*
X176614285Y-126751177D01*
X176661904Y-126655939D01*
X176661904Y-126560701D01*
X176614285Y-126465463D01*
X176566666Y-126417844D01*
X176471428Y-126370225D01*
X176280952Y-126322606D01*
X176185714Y-126274987D01*
X176138095Y-126227368D01*
X176090476Y-126132130D01*
X176090476Y-126036892D01*
X176138095Y-125941654D01*
X176185714Y-125894035D01*
X176280952Y-125846415D01*
X176519047Y-125846415D01*
X176661904Y-125894035D01*
X176995238Y-125846415D02*
X177233333Y-126846415D01*
X177423809Y-126132130D01*
X177614285Y-126846415D01*
X177852380Y-125846415D01*
X178185714Y-125941654D02*
X178233333Y-125894035D01*
X178328571Y-125846415D01*
X178566666Y-125846415D01*
X178661904Y-125894035D01*
X178709523Y-125941654D01*
X178757142Y-126036892D01*
X178757142Y-126132130D01*
X178709523Y-126274987D01*
X178138095Y-126846415D01*
X178757142Y-126846415D01*
X179090476Y-125846415D02*
X179757142Y-125846415D01*
X179328571Y-126846415D01*
%TO.C,SW10*%
X170590476Y-69004761D02*
X170733333Y-69052380D01*
X170971428Y-69052380D01*
X171066666Y-69004761D01*
X171114285Y-68957142D01*
X171161904Y-68861904D01*
X171161904Y-68766666D01*
X171114285Y-68671428D01*
X171066666Y-68623809D01*
X170971428Y-68576190D01*
X170780952Y-68528571D01*
X170685714Y-68480952D01*
X170638095Y-68433333D01*
X170590476Y-68338095D01*
X170590476Y-68242857D01*
X170638095Y-68147619D01*
X170685714Y-68100000D01*
X170780952Y-68052380D01*
X171019047Y-68052380D01*
X171161904Y-68100000D01*
X171495238Y-68052380D02*
X171733333Y-69052380D01*
X171923809Y-68338095D01*
X172114285Y-69052380D01*
X172352380Y-68052380D01*
X173257142Y-69052380D02*
X172685714Y-69052380D01*
X172971428Y-69052380D02*
X172971428Y-68052380D01*
X172876190Y-68195238D01*
X172780952Y-68290476D01*
X172685714Y-68338095D01*
X173876190Y-68052380D02*
X173971428Y-68052380D01*
X174066666Y-68100000D01*
X174114285Y-68147619D01*
X174161904Y-68242857D01*
X174209523Y-68433333D01*
X174209523Y-68671428D01*
X174161904Y-68861904D01*
X174114285Y-68957142D01*
X174066666Y-69004761D01*
X173971428Y-69052380D01*
X173876190Y-69052380D01*
X173780952Y-69004761D01*
X173733333Y-68957142D01*
X173685714Y-68861904D01*
X173638095Y-68671428D01*
X173638095Y-68433333D01*
X173685714Y-68242857D01*
X173733333Y-68147619D01*
X173780952Y-68100000D01*
X173876190Y-68052380D01*
%TO.C,SW1*%
X113536724Y-53604761D02*
X113679581Y-53652380D01*
X113917677Y-53652380D01*
X114012915Y-53604761D01*
X114060534Y-53557142D01*
X114108153Y-53461904D01*
X114108153Y-53366666D01*
X114060534Y-53271428D01*
X114012915Y-53223809D01*
X113917677Y-53176190D01*
X113727200Y-53128571D01*
X113631962Y-53080952D01*
X113584343Y-53033333D01*
X113536724Y-52938095D01*
X113536724Y-52842857D01*
X113584343Y-52747619D01*
X113631962Y-52700000D01*
X113727200Y-52652380D01*
X113965296Y-52652380D01*
X114108153Y-52700000D01*
X114441486Y-52652380D02*
X114679581Y-53652380D01*
X114870058Y-52938095D01*
X115060534Y-53652380D01*
X115298629Y-52652380D01*
X116203391Y-53652380D02*
X115631962Y-53652380D01*
X115917677Y-53652380D02*
X115917677Y-52652380D01*
X115822438Y-52795238D01*
X115727200Y-52890476D01*
X115631962Y-52938095D01*
%TO.C,SW11*%
X189790476Y-72104761D02*
X189933333Y-72152380D01*
X190171428Y-72152380D01*
X190266666Y-72104761D01*
X190314285Y-72057142D01*
X190361904Y-71961904D01*
X190361904Y-71866666D01*
X190314285Y-71771428D01*
X190266666Y-71723809D01*
X190171428Y-71676190D01*
X189980952Y-71628571D01*
X189885714Y-71580952D01*
X189838095Y-71533333D01*
X189790476Y-71438095D01*
X189790476Y-71342857D01*
X189838095Y-71247619D01*
X189885714Y-71200000D01*
X189980952Y-71152380D01*
X190219047Y-71152380D01*
X190361904Y-71200000D01*
X190695238Y-71152380D02*
X190933333Y-72152380D01*
X191123809Y-71438095D01*
X191314285Y-72152380D01*
X191552380Y-71152380D01*
X192457142Y-72152380D02*
X191885714Y-72152380D01*
X192171428Y-72152380D02*
X192171428Y-71152380D01*
X192076190Y-71295238D01*
X191980952Y-71390476D01*
X191885714Y-71438095D01*
X193409523Y-72152380D02*
X192838095Y-72152380D01*
X193123809Y-72152380D02*
X193123809Y-71152380D01*
X193028571Y-71295238D01*
X192933333Y-71390476D01*
X192838095Y-71438095D01*
%TO.C,H2*%
X243538095Y-134552380D02*
X243538095Y-133552380D01*
X243538095Y-134028571D02*
X244109523Y-134028571D01*
X244109523Y-134552380D02*
X244109523Y-133552380D01*
X244538095Y-133647619D02*
X244585714Y-133600000D01*
X244680952Y-133552380D01*
X244919047Y-133552380D01*
X245014285Y-133600000D01*
X245061904Y-133647619D01*
X245109523Y-133742857D01*
X245109523Y-133838095D01*
X245061904Y-133980952D01*
X244490476Y-134552380D01*
X245109523Y-134552380D01*
%TO.C,SW30*%
X105774819Y-77309523D02*
X105822438Y-77166666D01*
X105822438Y-76928571D01*
X105774819Y-76833333D01*
X105727200Y-76785714D01*
X105631962Y-76738095D01*
X105536724Y-76738095D01*
X105441486Y-76785714D01*
X105393867Y-76833333D01*
X105346248Y-76928571D01*
X105298629Y-77119047D01*
X105251010Y-77214285D01*
X105203391Y-77261904D01*
X105108153Y-77309523D01*
X105012915Y-77309523D01*
X104917677Y-77261904D01*
X104870058Y-77214285D01*
X104822438Y-77119047D01*
X104822438Y-76880952D01*
X104870058Y-76738095D01*
X104822438Y-76404761D02*
X105822438Y-76166666D01*
X105108153Y-75976190D01*
X105822438Y-75785714D01*
X104822438Y-75547619D01*
X104822438Y-75261904D02*
X104822438Y-74642857D01*
X105203391Y-74976190D01*
X105203391Y-74833333D01*
X105251010Y-74738095D01*
X105298629Y-74690476D01*
X105393867Y-74642857D01*
X105631962Y-74642857D01*
X105727200Y-74690476D01*
X105774819Y-74738095D01*
X105822438Y-74833333D01*
X105822438Y-75119047D01*
X105774819Y-75214285D01*
X105727200Y-75261904D01*
X104822438Y-74023809D02*
X104822438Y-73928571D01*
X104870058Y-73833333D01*
X104917677Y-73785714D01*
X105012915Y-73738095D01*
X105203391Y-73690476D01*
X105441486Y-73690476D01*
X105631962Y-73738095D01*
X105727200Y-73785714D01*
X105774819Y-73833333D01*
X105822438Y-73928571D01*
X105822438Y-74023809D01*
X105774819Y-74119047D01*
X105727200Y-74166666D01*
X105631962Y-74214285D01*
X105441486Y-74261904D01*
X105203391Y-74261904D01*
X105012915Y-74214285D01*
X104917677Y-74166666D01*
X104870058Y-74119047D01*
X104822438Y-74023809D01*
%TO.C,SW21*%
X151390476Y-108604761D02*
X151533333Y-108652380D01*
X151771428Y-108652380D01*
X151866666Y-108604761D01*
X151914285Y-108557142D01*
X151961904Y-108461904D01*
X151961904Y-108366666D01*
X151914285Y-108271428D01*
X151866666Y-108223809D01*
X151771428Y-108176190D01*
X151580952Y-108128571D01*
X151485714Y-108080952D01*
X151438095Y-108033333D01*
X151390476Y-107938095D01*
X151390476Y-107842857D01*
X151438095Y-107747619D01*
X151485714Y-107700000D01*
X151580952Y-107652380D01*
X151819047Y-107652380D01*
X151961904Y-107700000D01*
X152295238Y-107652380D02*
X152533333Y-108652380D01*
X152723809Y-107938095D01*
X152914285Y-108652380D01*
X153152380Y-107652380D01*
X153485714Y-107747619D02*
X153533333Y-107700000D01*
X153628571Y-107652380D01*
X153866666Y-107652380D01*
X153961904Y-107700000D01*
X154009523Y-107747619D01*
X154057142Y-107842857D01*
X154057142Y-107938095D01*
X154009523Y-108080952D01*
X153438095Y-108652380D01*
X154057142Y-108652380D01*
X155009523Y-108652380D02*
X154438095Y-108652380D01*
X154723809Y-108652380D02*
X154723809Y-107652380D01*
X154628571Y-107795238D01*
X154533333Y-107890476D01*
X154438095Y-107938095D01*
%TO.C,H5*%
X246888095Y-88852380D02*
X246888095Y-87852380D01*
X246888095Y-88328571D02*
X247459523Y-88328571D01*
X247459523Y-88852380D02*
X247459523Y-87852380D01*
X248411904Y-87852380D02*
X247935714Y-87852380D01*
X247888095Y-88328571D01*
X247935714Y-88280952D01*
X248030952Y-88233333D01*
X248269047Y-88233333D01*
X248364285Y-88280952D01*
X248411904Y-88328571D01*
X248459523Y-88423809D01*
X248459523Y-88661904D01*
X248411904Y-88757142D01*
X248364285Y-88804761D01*
X248269047Y-88852380D01*
X248030952Y-88852380D01*
X247935714Y-88804761D01*
X247888095Y-88757142D01*
%TO.C,SW9*%
X151866666Y-72104761D02*
X152009523Y-72152380D01*
X152247619Y-72152380D01*
X152342857Y-72104761D01*
X152390476Y-72057142D01*
X152438095Y-71961904D01*
X152438095Y-71866666D01*
X152390476Y-71771428D01*
X152342857Y-71723809D01*
X152247619Y-71676190D01*
X152057142Y-71628571D01*
X151961904Y-71580952D01*
X151914285Y-71533333D01*
X151866666Y-71438095D01*
X151866666Y-71342857D01*
X151914285Y-71247619D01*
X151961904Y-71200000D01*
X152057142Y-71152380D01*
X152295238Y-71152380D01*
X152438095Y-71200000D01*
X152771428Y-71152380D02*
X153009523Y-72152380D01*
X153200000Y-71438095D01*
X153390476Y-72152380D01*
X153628571Y-71152380D01*
X154057142Y-72152380D02*
X154247619Y-72152380D01*
X154342857Y-72104761D01*
X154390476Y-72057142D01*
X154485714Y-71914285D01*
X154533333Y-71723809D01*
X154533333Y-71342857D01*
X154485714Y-71247619D01*
X154438095Y-71200000D01*
X154342857Y-71152380D01*
X154152380Y-71152380D01*
X154057142Y-71200000D01*
X154009523Y-71247619D01*
X153961904Y-71342857D01*
X153961904Y-71580952D01*
X154009523Y-71676190D01*
X154057142Y-71723809D01*
X154152380Y-71771428D01*
X154342857Y-71771428D01*
X154438095Y-71723809D01*
X154485714Y-71676190D01*
X154533333Y-71580952D01*
%TO.C,H4*%
X96738095Y-44652380D02*
X96738095Y-43652380D01*
X96738095Y-44128571D02*
X97309523Y-44128571D01*
X97309523Y-44652380D02*
X97309523Y-43652380D01*
X98214285Y-43985714D02*
X98214285Y-44652380D01*
X97976190Y-43604761D02*
X97738095Y-44319047D01*
X98357142Y-44319047D01*
%TO.C,SW4*%
X171066666Y-51004761D02*
X171209523Y-51052380D01*
X171447619Y-51052380D01*
X171542857Y-51004761D01*
X171590476Y-50957142D01*
X171638095Y-50861904D01*
X171638095Y-50766666D01*
X171590476Y-50671428D01*
X171542857Y-50623809D01*
X171447619Y-50576190D01*
X171257142Y-50528571D01*
X171161904Y-50480952D01*
X171114285Y-50433333D01*
X171066666Y-50338095D01*
X171066666Y-50242857D01*
X171114285Y-50147619D01*
X171161904Y-50100000D01*
X171257142Y-50052380D01*
X171495238Y-50052380D01*
X171638095Y-50100000D01*
X171971428Y-50052380D02*
X172209523Y-51052380D01*
X172400000Y-50338095D01*
X172590476Y-51052380D01*
X172828571Y-50052380D01*
X173638095Y-50385714D02*
X173638095Y-51052380D01*
X173400000Y-50004761D02*
X173161904Y-50719047D01*
X173780952Y-50719047D01*
%TO.C,SW7*%
X113566957Y-71904761D02*
X113709814Y-71952380D01*
X113947910Y-71952380D01*
X114043148Y-71904761D01*
X114090767Y-71857142D01*
X114138386Y-71761904D01*
X114138386Y-71666666D01*
X114090767Y-71571428D01*
X114043148Y-71523809D01*
X113947910Y-71476190D01*
X113757433Y-71428571D01*
X113662195Y-71380952D01*
X113614576Y-71333333D01*
X113566957Y-71238095D01*
X113566957Y-71142857D01*
X113614576Y-71047619D01*
X113662195Y-71000000D01*
X113757433Y-70952380D01*
X113995529Y-70952380D01*
X114138386Y-71000000D01*
X114471719Y-70952380D02*
X114709814Y-71952380D01*
X114900291Y-71238095D01*
X115090767Y-71952380D01*
X115328862Y-70952380D01*
X115614576Y-70952380D02*
X116281243Y-70952380D01*
X115852671Y-71952380D01*
%TO.C,H6*%
X105138095Y-134352380D02*
X105138095Y-133352380D01*
X105138095Y-133828571D02*
X105709523Y-133828571D01*
X105709523Y-134352380D02*
X105709523Y-133352380D01*
X106614285Y-133352380D02*
X106423809Y-133352380D01*
X106328571Y-133400000D01*
X106280952Y-133447619D01*
X106185714Y-133590476D01*
X106138095Y-133780952D01*
X106138095Y-134161904D01*
X106185714Y-134257142D01*
X106233333Y-134304761D01*
X106328571Y-134352380D01*
X106519047Y-134352380D01*
X106614285Y-134304761D01*
X106661904Y-134257142D01*
X106709523Y-134161904D01*
X106709523Y-133923809D01*
X106661904Y-133828571D01*
X106614285Y-133780952D01*
X106519047Y-133733333D01*
X106328571Y-133733333D01*
X106233333Y-133780952D01*
X106185714Y-133828571D01*
X106138095Y-133923809D01*
%TO.C,SW100*%
X250400761Y-66801714D02*
X250448380Y-66658857D01*
X250448380Y-66420761D01*
X250400761Y-66325523D01*
X250353142Y-66277904D01*
X250257904Y-66230285D01*
X250162666Y-66230285D01*
X250067428Y-66277904D01*
X250019809Y-66325523D01*
X249972190Y-66420761D01*
X249924571Y-66611238D01*
X249876952Y-66706476D01*
X249829333Y-66754095D01*
X249734095Y-66801714D01*
X249638857Y-66801714D01*
X249543619Y-66754095D01*
X249496000Y-66706476D01*
X249448380Y-66611238D01*
X249448380Y-66373142D01*
X249496000Y-66230285D01*
X249448380Y-65896952D02*
X250448380Y-65658857D01*
X249734095Y-65468380D01*
X250448380Y-65277904D01*
X249448380Y-65039809D01*
X250448380Y-64135047D02*
X250448380Y-64706476D01*
X250448380Y-64420761D02*
X249448380Y-64420761D01*
X249591238Y-64516000D01*
X249686476Y-64611238D01*
X249734095Y-64706476D01*
X249448380Y-63516000D02*
X249448380Y-63420761D01*
X249496000Y-63325523D01*
X249543619Y-63277904D01*
X249638857Y-63230285D01*
X249829333Y-63182666D01*
X250067428Y-63182666D01*
X250257904Y-63230285D01*
X250353142Y-63277904D01*
X250400761Y-63325523D01*
X250448380Y-63420761D01*
X250448380Y-63516000D01*
X250400761Y-63611238D01*
X250353142Y-63658857D01*
X250257904Y-63706476D01*
X250067428Y-63754095D01*
X249829333Y-63754095D01*
X249638857Y-63706476D01*
X249543619Y-63658857D01*
X249496000Y-63611238D01*
X249448380Y-63516000D01*
X249448380Y-62563619D02*
X249448380Y-62468380D01*
X249496000Y-62373142D01*
X249543619Y-62325523D01*
X249638857Y-62277904D01*
X249829333Y-62230285D01*
X250067428Y-62230285D01*
X250257904Y-62277904D01*
X250353142Y-62325523D01*
X250400761Y-62373142D01*
X250448380Y-62468380D01*
X250448380Y-62563619D01*
X250400761Y-62658857D01*
X250353142Y-62706476D01*
X250257904Y-62754095D01*
X250067428Y-62801714D01*
X249829333Y-62801714D01*
X249638857Y-62754095D01*
X249543619Y-62706476D01*
X249496000Y-62658857D01*
X249448380Y-62563619D01*
%TO.C,SW17*%
X189790476Y-90404761D02*
X189933333Y-90452380D01*
X190171428Y-90452380D01*
X190266666Y-90404761D01*
X190314285Y-90357142D01*
X190361904Y-90261904D01*
X190361904Y-90166666D01*
X190314285Y-90071428D01*
X190266666Y-90023809D01*
X190171428Y-89976190D01*
X189980952Y-89928571D01*
X189885714Y-89880952D01*
X189838095Y-89833333D01*
X189790476Y-89738095D01*
X189790476Y-89642857D01*
X189838095Y-89547619D01*
X189885714Y-89500000D01*
X189980952Y-89452380D01*
X190219047Y-89452380D01*
X190361904Y-89500000D01*
X190695238Y-89452380D02*
X190933333Y-90452380D01*
X191123809Y-89738095D01*
X191314285Y-90452380D01*
X191552380Y-89452380D01*
X192457142Y-90452380D02*
X191885714Y-90452380D01*
X192171428Y-90452380D02*
X192171428Y-89452380D01*
X192076190Y-89595238D01*
X191980952Y-89690476D01*
X191885714Y-89738095D01*
X192790476Y-89452380D02*
X193457142Y-89452380D01*
X193028571Y-90452380D01*
%TO.C,SW19*%
X103990767Y-108404761D02*
X104133624Y-108452380D01*
X104371719Y-108452380D01*
X104466957Y-108404761D01*
X104514576Y-108357142D01*
X104562195Y-108261904D01*
X104562195Y-108166666D01*
X104514576Y-108071428D01*
X104466957Y-108023809D01*
X104371719Y-107976190D01*
X104181243Y-107928571D01*
X104086005Y-107880952D01*
X104038386Y-107833333D01*
X103990767Y-107738095D01*
X103990767Y-107642857D01*
X104038386Y-107547619D01*
X104086005Y-107500000D01*
X104181243Y-107452380D01*
X104419338Y-107452380D01*
X104562195Y-107500000D01*
X104895529Y-107452380D02*
X105133624Y-108452380D01*
X105324100Y-107738095D01*
X105514576Y-108452380D01*
X105752671Y-107452380D01*
X106657433Y-108452380D02*
X106086005Y-108452380D01*
X106371719Y-108452380D02*
X106371719Y-107452380D01*
X106276481Y-107595238D01*
X106181243Y-107690476D01*
X106086005Y-107738095D01*
X107133624Y-108452380D02*
X107324100Y-108452380D01*
X107419338Y-108404761D01*
X107466957Y-108357142D01*
X107562195Y-108214285D01*
X107609814Y-108023809D01*
X107609814Y-107642857D01*
X107562195Y-107547619D01*
X107514576Y-107500000D01*
X107419338Y-107452380D01*
X107228862Y-107452380D01*
X107133624Y-107500000D01*
X107086005Y-107547619D01*
X107038386Y-107642857D01*
X107038386Y-107880952D01*
X107086005Y-107976190D01*
X107133624Y-108023809D01*
X107228862Y-108071428D01*
X107419338Y-108071428D01*
X107514576Y-108023809D01*
X107562195Y-107976190D01*
X107609814Y-107880952D01*
%TO.C,SW24*%
X209090476Y-108504761D02*
X209233333Y-108552380D01*
X209471428Y-108552380D01*
X209566666Y-108504761D01*
X209614285Y-108457142D01*
X209661904Y-108361904D01*
X209661904Y-108266666D01*
X209614285Y-108171428D01*
X209566666Y-108123809D01*
X209471428Y-108076190D01*
X209280952Y-108028571D01*
X209185714Y-107980952D01*
X209138095Y-107933333D01*
X209090476Y-107838095D01*
X209090476Y-107742857D01*
X209138095Y-107647619D01*
X209185714Y-107600000D01*
X209280952Y-107552380D01*
X209519047Y-107552380D01*
X209661904Y-107600000D01*
X209995238Y-107552380D02*
X210233333Y-108552380D01*
X210423809Y-107838095D01*
X210614285Y-108552380D01*
X210852380Y-107552380D01*
X211185714Y-107647619D02*
X211233333Y-107600000D01*
X211328571Y-107552380D01*
X211566666Y-107552380D01*
X211661904Y-107600000D01*
X211709523Y-107647619D01*
X211757142Y-107742857D01*
X211757142Y-107838095D01*
X211709523Y-107980952D01*
X211138095Y-108552380D01*
X211757142Y-108552380D01*
X212614285Y-107885714D02*
X212614285Y-108552380D01*
X212376190Y-107504761D02*
X212138095Y-108219047D01*
X212757142Y-108219047D01*
%TO.C,SW28*%
X204590185Y-126798796D02*
X204733042Y-126846415D01*
X204971137Y-126846415D01*
X205066375Y-126798796D01*
X205113994Y-126751177D01*
X205161613Y-126655939D01*
X205161613Y-126560701D01*
X205113994Y-126465463D01*
X205066375Y-126417844D01*
X204971137Y-126370225D01*
X204780661Y-126322606D01*
X204685423Y-126274987D01*
X204637804Y-126227368D01*
X204590185Y-126132130D01*
X204590185Y-126036892D01*
X204637804Y-125941654D01*
X204685423Y-125894035D01*
X204780661Y-125846415D01*
X205018756Y-125846415D01*
X205161613Y-125894035D01*
X205494947Y-125846415D02*
X205733042Y-126846415D01*
X205923518Y-126132130D01*
X206113994Y-126846415D01*
X206352089Y-125846415D01*
X206685423Y-125941654D02*
X206733042Y-125894035D01*
X206828280Y-125846415D01*
X207066375Y-125846415D01*
X207161613Y-125894035D01*
X207209232Y-125941654D01*
X207256851Y-126036892D01*
X207256851Y-126132130D01*
X207209232Y-126274987D01*
X206637804Y-126846415D01*
X207256851Y-126846415D01*
X207828280Y-126274987D02*
X207733042Y-126227368D01*
X207685423Y-126179749D01*
X207637804Y-126084511D01*
X207637804Y-126036892D01*
X207685423Y-125941654D01*
X207733042Y-125894035D01*
X207828280Y-125846415D01*
X208018756Y-125846415D01*
X208113994Y-125894035D01*
X208161613Y-125941654D01*
X208209232Y-126036892D01*
X208209232Y-126084511D01*
X208161613Y-126179749D01*
X208113994Y-126227368D01*
X208018756Y-126274987D01*
X207828280Y-126274987D01*
X207733042Y-126322606D01*
X207685423Y-126370225D01*
X207637804Y-126465463D01*
X207637804Y-126655939D01*
X207685423Y-126751177D01*
X207733042Y-126798796D01*
X207828280Y-126846415D01*
X208018756Y-126846415D01*
X208113994Y-126798796D01*
X208161613Y-126751177D01*
X208209232Y-126655939D01*
X208209232Y-126465463D01*
X208161613Y-126370225D01*
X208113994Y-126322606D01*
X208018756Y-126274987D01*
%TO.C,SW5*%
X190266666Y-54004761D02*
X190409523Y-54052380D01*
X190647619Y-54052380D01*
X190742857Y-54004761D01*
X190790476Y-53957142D01*
X190838095Y-53861904D01*
X190838095Y-53766666D01*
X190790476Y-53671428D01*
X190742857Y-53623809D01*
X190647619Y-53576190D01*
X190457142Y-53528571D01*
X190361904Y-53480952D01*
X190314285Y-53433333D01*
X190266666Y-53338095D01*
X190266666Y-53242857D01*
X190314285Y-53147619D01*
X190361904Y-53100000D01*
X190457142Y-53052380D01*
X190695238Y-53052380D01*
X190838095Y-53100000D01*
X191171428Y-53052380D02*
X191409523Y-54052380D01*
X191600000Y-53338095D01*
X191790476Y-54052380D01*
X192028571Y-53052380D01*
X192885714Y-53052380D02*
X192409523Y-53052380D01*
X192361904Y-53528571D01*
X192409523Y-53480952D01*
X192504761Y-53433333D01*
X192742857Y-53433333D01*
X192838095Y-53480952D01*
X192885714Y-53528571D01*
X192933333Y-53623809D01*
X192933333Y-53861904D01*
X192885714Y-53957142D01*
X192838095Y-54004761D01*
X192742857Y-54052380D01*
X192504761Y-54052380D01*
X192409523Y-54004761D01*
X192361904Y-53957142D01*
%TO.C,SW3*%
X151866666Y-53704761D02*
X152009523Y-53752380D01*
X152247619Y-53752380D01*
X152342857Y-53704761D01*
X152390476Y-53657142D01*
X152438095Y-53561904D01*
X152438095Y-53466666D01*
X152390476Y-53371428D01*
X152342857Y-53323809D01*
X152247619Y-53276190D01*
X152057142Y-53228571D01*
X151961904Y-53180952D01*
X151914285Y-53133333D01*
X151866666Y-53038095D01*
X151866666Y-52942857D01*
X151914285Y-52847619D01*
X151961904Y-52800000D01*
X152057142Y-52752380D01*
X152295238Y-52752380D01*
X152438095Y-52800000D01*
X152771428Y-52752380D02*
X153009523Y-53752380D01*
X153200000Y-53038095D01*
X153390476Y-53752380D01*
X153628571Y-52752380D01*
X153914285Y-52752380D02*
X154533333Y-52752380D01*
X154200000Y-53133333D01*
X154342857Y-53133333D01*
X154438095Y-53180952D01*
X154485714Y-53228571D01*
X154533333Y-53323809D01*
X154533333Y-53561904D01*
X154485714Y-53657142D01*
X154438095Y-53704761D01*
X154342857Y-53752380D01*
X154057142Y-53752380D01*
X153961904Y-53704761D01*
X153914285Y-53657142D01*
%TO.C,SW25*%
X132590476Y-126804761D02*
X132733333Y-126852380D01*
X132971428Y-126852380D01*
X133066666Y-126804761D01*
X133114285Y-126757142D01*
X133161904Y-126661904D01*
X133161904Y-126566666D01*
X133114285Y-126471428D01*
X133066666Y-126423809D01*
X132971428Y-126376190D01*
X132780952Y-126328571D01*
X132685714Y-126280952D01*
X132638095Y-126233333D01*
X132590476Y-126138095D01*
X132590476Y-126042857D01*
X132638095Y-125947619D01*
X132685714Y-125900000D01*
X132780952Y-125852380D01*
X133019047Y-125852380D01*
X133161904Y-125900000D01*
X133495238Y-125852380D02*
X133733333Y-126852380D01*
X133923809Y-126138095D01*
X134114285Y-126852380D01*
X134352380Y-125852380D01*
X134685714Y-125947619D02*
X134733333Y-125900000D01*
X134828571Y-125852380D01*
X135066666Y-125852380D01*
X135161904Y-125900000D01*
X135209523Y-125947619D01*
X135257142Y-126042857D01*
X135257142Y-126138095D01*
X135209523Y-126280952D01*
X134638095Y-126852380D01*
X135257142Y-126852380D01*
X136161904Y-125852380D02*
X135685714Y-125852380D01*
X135638095Y-126328571D01*
X135685714Y-126280952D01*
X135780952Y-126233333D01*
X136019047Y-126233333D01*
X136114285Y-126280952D01*
X136161904Y-126328571D01*
X136209523Y-126423809D01*
X136209523Y-126661904D01*
X136161904Y-126757142D01*
X136114285Y-126804761D01*
X136019047Y-126852380D01*
X135780952Y-126852380D01*
X135685714Y-126804761D01*
X135638095Y-126757142D01*
%TO.C,SW22*%
X170590476Y-105504761D02*
X170733333Y-105552380D01*
X170971428Y-105552380D01*
X171066666Y-105504761D01*
X171114285Y-105457142D01*
X171161904Y-105361904D01*
X171161904Y-105266666D01*
X171114285Y-105171428D01*
X171066666Y-105123809D01*
X170971428Y-105076190D01*
X170780952Y-105028571D01*
X170685714Y-104980952D01*
X170638095Y-104933333D01*
X170590476Y-104838095D01*
X170590476Y-104742857D01*
X170638095Y-104647619D01*
X170685714Y-104600000D01*
X170780952Y-104552380D01*
X171019047Y-104552380D01*
X171161904Y-104600000D01*
X171495238Y-104552380D02*
X171733333Y-105552380D01*
X171923809Y-104838095D01*
X172114285Y-105552380D01*
X172352380Y-104552380D01*
X172685714Y-104647619D02*
X172733333Y-104600000D01*
X172828571Y-104552380D01*
X173066666Y-104552380D01*
X173161904Y-104600000D01*
X173209523Y-104647619D01*
X173257142Y-104742857D01*
X173257142Y-104838095D01*
X173209523Y-104980952D01*
X172638095Y-105552380D01*
X173257142Y-105552380D01*
X173638095Y-104647619D02*
X173685714Y-104600000D01*
X173780952Y-104552380D01*
X174019047Y-104552380D01*
X174114285Y-104600000D01*
X174161904Y-104647619D01*
X174209523Y-104742857D01*
X174209523Y-104838095D01*
X174161904Y-104980952D01*
X173590476Y-105552380D01*
X174209523Y-105552380D01*
%TO.C,SW15*%
X151390476Y-90204761D02*
X151533333Y-90252380D01*
X151771428Y-90252380D01*
X151866666Y-90204761D01*
X151914285Y-90157142D01*
X151961904Y-90061904D01*
X151961904Y-89966666D01*
X151914285Y-89871428D01*
X151866666Y-89823809D01*
X151771428Y-89776190D01*
X151580952Y-89728571D01*
X151485714Y-89680952D01*
X151438095Y-89633333D01*
X151390476Y-89538095D01*
X151390476Y-89442857D01*
X151438095Y-89347619D01*
X151485714Y-89300000D01*
X151580952Y-89252380D01*
X151819047Y-89252380D01*
X151961904Y-89300000D01*
X152295238Y-89252380D02*
X152533333Y-90252380D01*
X152723809Y-89538095D01*
X152914285Y-90252380D01*
X153152380Y-89252380D01*
X154057142Y-90252380D02*
X153485714Y-90252380D01*
X153771428Y-90252380D02*
X153771428Y-89252380D01*
X153676190Y-89395238D01*
X153580952Y-89490476D01*
X153485714Y-89538095D01*
X154961904Y-89252380D02*
X154485714Y-89252380D01*
X154438095Y-89728571D01*
X154485714Y-89680952D01*
X154580952Y-89633333D01*
X154819047Y-89633333D01*
X154914285Y-89680952D01*
X154961904Y-89728571D01*
X155009523Y-89823809D01*
X155009523Y-90061904D01*
X154961904Y-90157142D01*
X154914285Y-90204761D01*
X154819047Y-90252380D01*
X154580952Y-90252380D01*
X154485714Y-90204761D01*
X154438095Y-90157142D01*
%TO.C,H3*%
X249768095Y-43552380D02*
X249768095Y-42552380D01*
X249768095Y-43028571D02*
X250339523Y-43028571D01*
X250339523Y-43552380D02*
X250339523Y-42552380D01*
X250720476Y-42552380D02*
X251339523Y-42552380D01*
X251006190Y-42933333D01*
X251149047Y-42933333D01*
X251244285Y-42980952D01*
X251291904Y-43028571D01*
X251339523Y-43123809D01*
X251339523Y-43361904D01*
X251291904Y-43457142D01*
X251244285Y-43504761D01*
X251149047Y-43552380D01*
X250863333Y-43552380D01*
X250768095Y-43504761D01*
X250720476Y-43457142D01*
%TO.C,SW8*%
X132666666Y-71904761D02*
X132809523Y-71952380D01*
X133047619Y-71952380D01*
X133142857Y-71904761D01*
X133190476Y-71857142D01*
X133238095Y-71761904D01*
X133238095Y-71666666D01*
X133190476Y-71571428D01*
X133142857Y-71523809D01*
X133047619Y-71476190D01*
X132857142Y-71428571D01*
X132761904Y-71380952D01*
X132714285Y-71333333D01*
X132666666Y-71238095D01*
X132666666Y-71142857D01*
X132714285Y-71047619D01*
X132761904Y-71000000D01*
X132857142Y-70952380D01*
X133095238Y-70952380D01*
X133238095Y-71000000D01*
X133571428Y-70952380D02*
X133809523Y-71952380D01*
X134000000Y-71238095D01*
X134190476Y-71952380D01*
X134428571Y-70952380D01*
X134952380Y-71380952D02*
X134857142Y-71333333D01*
X134809523Y-71285714D01*
X134761904Y-71190476D01*
X134761904Y-71142857D01*
X134809523Y-71047619D01*
X134857142Y-71000000D01*
X134952380Y-70952380D01*
X135142857Y-70952380D01*
X135238095Y-71000000D01*
X135285714Y-71047619D01*
X135333333Y-71142857D01*
X135333333Y-71190476D01*
X135285714Y-71285714D01*
X135238095Y-71333333D01*
X135142857Y-71380952D01*
X134952380Y-71380952D01*
X134857142Y-71428571D01*
X134809523Y-71476190D01*
X134761904Y-71571428D01*
X134761904Y-71761904D01*
X134809523Y-71857142D01*
X134857142Y-71904761D01*
X134952380Y-71952380D01*
X135142857Y-71952380D01*
X135238095Y-71904761D01*
X135285714Y-71857142D01*
X135333333Y-71761904D01*
X135333333Y-71571428D01*
X135285714Y-71476190D01*
X135238095Y-71428571D01*
X135142857Y-71380952D01*
%TO.C,SW12*%
X208990476Y-72204761D02*
X209133333Y-72252380D01*
X209371428Y-72252380D01*
X209466666Y-72204761D01*
X209514285Y-72157142D01*
X209561904Y-72061904D01*
X209561904Y-71966666D01*
X209514285Y-71871428D01*
X209466666Y-71823809D01*
X209371428Y-71776190D01*
X209180952Y-71728571D01*
X209085714Y-71680952D01*
X209038095Y-71633333D01*
X208990476Y-71538095D01*
X208990476Y-71442857D01*
X209038095Y-71347619D01*
X209085714Y-71300000D01*
X209180952Y-71252380D01*
X209419047Y-71252380D01*
X209561904Y-71300000D01*
X209895238Y-71252380D02*
X210133333Y-72252380D01*
X210323809Y-71538095D01*
X210514285Y-72252380D01*
X210752380Y-71252380D01*
X211657142Y-72252380D02*
X211085714Y-72252380D01*
X211371428Y-72252380D02*
X211371428Y-71252380D01*
X211276190Y-71395238D01*
X211180952Y-71490476D01*
X211085714Y-71538095D01*
X212038095Y-71347619D02*
X212085714Y-71300000D01*
X212180952Y-71252380D01*
X212419047Y-71252380D01*
X212514285Y-71300000D01*
X212561904Y-71347619D01*
X212609523Y-71442857D01*
X212609523Y-71538095D01*
X212561904Y-71680952D01*
X211990476Y-72252380D01*
X212609523Y-72252380D01*
%TO.C,SW20*%
X132190476Y-108504761D02*
X132333333Y-108552380D01*
X132571428Y-108552380D01*
X132666666Y-108504761D01*
X132714285Y-108457142D01*
X132761904Y-108361904D01*
X132761904Y-108266666D01*
X132714285Y-108171428D01*
X132666666Y-108123809D01*
X132571428Y-108076190D01*
X132380952Y-108028571D01*
X132285714Y-107980952D01*
X132238095Y-107933333D01*
X132190476Y-107838095D01*
X132190476Y-107742857D01*
X132238095Y-107647619D01*
X132285714Y-107600000D01*
X132380952Y-107552380D01*
X132619047Y-107552380D01*
X132761904Y-107600000D01*
X133095238Y-107552380D02*
X133333333Y-108552380D01*
X133523809Y-107838095D01*
X133714285Y-108552380D01*
X133952380Y-107552380D01*
X134285714Y-107647619D02*
X134333333Y-107600000D01*
X134428571Y-107552380D01*
X134666666Y-107552380D01*
X134761904Y-107600000D01*
X134809523Y-107647619D01*
X134857142Y-107742857D01*
X134857142Y-107838095D01*
X134809523Y-107980952D01*
X134238095Y-108552380D01*
X134857142Y-108552380D01*
X135476190Y-107552380D02*
X135571428Y-107552380D01*
X135666666Y-107600000D01*
X135714285Y-107647619D01*
X135761904Y-107742857D01*
X135809523Y-107933333D01*
X135809523Y-108171428D01*
X135761904Y-108361904D01*
X135714285Y-108457142D01*
X135666666Y-108504761D01*
X135571428Y-108552380D01*
X135476190Y-108552380D01*
X135380952Y-108504761D01*
X135333333Y-108457142D01*
X135285714Y-108361904D01*
X135238095Y-108171428D01*
X135238095Y-107933333D01*
X135285714Y-107742857D01*
X135333333Y-107647619D01*
X135380952Y-107600000D01*
X135476190Y-107552380D01*
%TO.C,SW16*%
X170590476Y-87304761D02*
X170733333Y-87352380D01*
X170971428Y-87352380D01*
X171066666Y-87304761D01*
X171114285Y-87257142D01*
X171161904Y-87161904D01*
X171161904Y-87066666D01*
X171114285Y-86971428D01*
X171066666Y-86923809D01*
X170971428Y-86876190D01*
X170780952Y-86828571D01*
X170685714Y-86780952D01*
X170638095Y-86733333D01*
X170590476Y-86638095D01*
X170590476Y-86542857D01*
X170638095Y-86447619D01*
X170685714Y-86400000D01*
X170780952Y-86352380D01*
X171019047Y-86352380D01*
X171161904Y-86400000D01*
X171495238Y-86352380D02*
X171733333Y-87352380D01*
X171923809Y-86638095D01*
X172114285Y-87352380D01*
X172352380Y-86352380D01*
X173257142Y-87352380D02*
X172685714Y-87352380D01*
X172971428Y-87352380D02*
X172971428Y-86352380D01*
X172876190Y-86495238D01*
X172780952Y-86590476D01*
X172685714Y-86638095D01*
X174114285Y-86352380D02*
X173923809Y-86352380D01*
X173828571Y-86400000D01*
X173780952Y-86447619D01*
X173685714Y-86590476D01*
X173638095Y-86780952D01*
X173638095Y-87161904D01*
X173685714Y-87257142D01*
X173733333Y-87304761D01*
X173828571Y-87352380D01*
X174019047Y-87352380D01*
X174114285Y-87304761D01*
X174161904Y-87257142D01*
X174209523Y-87161904D01*
X174209523Y-86923809D01*
X174161904Y-86828571D01*
X174114285Y-86780952D01*
X174019047Y-86733333D01*
X173828571Y-86733333D01*
X173733333Y-86780952D01*
X173685714Y-86828571D01*
X173638095Y-86923809D01*
%TO.C,SW26*%
X152190476Y-126804761D02*
X152333333Y-126852380D01*
X152571428Y-126852380D01*
X152666666Y-126804761D01*
X152714285Y-126757142D01*
X152761904Y-126661904D01*
X152761904Y-126566666D01*
X152714285Y-126471428D01*
X152666666Y-126423809D01*
X152571428Y-126376190D01*
X152380952Y-126328571D01*
X152285714Y-126280952D01*
X152238095Y-126233333D01*
X152190476Y-126138095D01*
X152190476Y-126042857D01*
X152238095Y-125947619D01*
X152285714Y-125900000D01*
X152380952Y-125852380D01*
X152619047Y-125852380D01*
X152761904Y-125900000D01*
X153095238Y-125852380D02*
X153333333Y-126852380D01*
X153523809Y-126138095D01*
X153714285Y-126852380D01*
X153952380Y-125852380D01*
X154285714Y-125947619D02*
X154333333Y-125900000D01*
X154428571Y-125852380D01*
X154666666Y-125852380D01*
X154761904Y-125900000D01*
X154809523Y-125947619D01*
X154857142Y-126042857D01*
X154857142Y-126138095D01*
X154809523Y-126280952D01*
X154238095Y-126852380D01*
X154857142Y-126852380D01*
X155714285Y-125852380D02*
X155523809Y-125852380D01*
X155428571Y-125900000D01*
X155380952Y-125947619D01*
X155285714Y-126090476D01*
X155238095Y-126280952D01*
X155238095Y-126661904D01*
X155285714Y-126757142D01*
X155333333Y-126804761D01*
X155428571Y-126852380D01*
X155619047Y-126852380D01*
X155714285Y-126804761D01*
X155761904Y-126757142D01*
X155809523Y-126661904D01*
X155809523Y-126423809D01*
X155761904Y-126328571D01*
X155714285Y-126280952D01*
X155619047Y-126233333D01*
X155428571Y-126233333D01*
X155333333Y-126280952D01*
X155285714Y-126328571D01*
X155238095Y-126423809D01*
D11*
%TO.C,C1*%
X196369420Y-46860000D02*
X196650580Y-46860000D01*
X196369420Y-45840000D02*
X196650580Y-45840000D01*
%TO.C,SW2*%
X141600000Y-69800000D02*
X141600000Y-54600000D01*
X126400000Y-54600000D02*
X126400000Y-69800000D01*
X141600000Y-54600000D02*
X126400000Y-54600000D01*
X126400000Y-69800000D02*
X141600000Y-69800000D01*
%TO.C,SW18*%
X218400000Y-91400000D02*
X203200000Y-91400000D01*
X218400000Y-106600000D02*
X218400000Y-91400000D01*
X203200000Y-91400000D02*
X203200000Y-106600000D01*
X203200000Y-106600000D02*
X218400000Y-106600000D01*
%TO.C,U1*%
X243500000Y-60900000D02*
X243500000Y-61300000D01*
X243500000Y-58400000D02*
X243500000Y-58800000D01*
X243500000Y-63400000D02*
X243500000Y-63800000D01*
X222500000Y-76200000D02*
X222500000Y-76600000D01*
X243500000Y-73600000D02*
X243500000Y-74000000D01*
X222500000Y-71100000D02*
X222500000Y-71500000D01*
X243500000Y-40600000D02*
X243500000Y-41000000D01*
X243500000Y-50700000D02*
X243500000Y-51100000D01*
X229300000Y-86600000D02*
X222500000Y-86600000D01*
X222500000Y-55800000D02*
X222500000Y-56200000D01*
X243500000Y-38000000D02*
X243500000Y-38400000D01*
X222500000Y-78700000D02*
X222500000Y-79100000D01*
X222500000Y-38267000D02*
X225507000Y-38267000D01*
X222500000Y-40600000D02*
X222500000Y-41000000D01*
X222500000Y-63400000D02*
X222500000Y-63800000D01*
X222500000Y-35600000D02*
X222500000Y-35900000D01*
X243500000Y-66000000D02*
X243500000Y-66400000D01*
X222500000Y-53300000D02*
X222500000Y-53700000D01*
X222500000Y-35600000D02*
X243500000Y-35600000D01*
X222500000Y-73600000D02*
X222500000Y-74000000D01*
X222500000Y-43100000D02*
X222500000Y-43500000D01*
X222500000Y-45700000D02*
X222500000Y-46100000D01*
X243500000Y-43100000D02*
X243500000Y-43500000D01*
X222500000Y-38000000D02*
X222500000Y-38400000D01*
X243500000Y-78700000D02*
X243500000Y-79100000D01*
X243500000Y-45700000D02*
X243500000Y-46100000D01*
X243500000Y-53300000D02*
X243500000Y-53700000D01*
X243500000Y-83800000D02*
X243500000Y-84200000D01*
X243500000Y-55800000D02*
X243500000Y-56200000D01*
X243500000Y-81200000D02*
X243500000Y-81600000D01*
X222500000Y-60900000D02*
X222500000Y-61300000D01*
X222500000Y-66000000D02*
X222500000Y-66400000D01*
X243500000Y-68500000D02*
X243500000Y-68900000D01*
X234100000Y-86600000D02*
X234500000Y-86600000D01*
X222500000Y-50700000D02*
X222500000Y-51100000D01*
X243500000Y-76200000D02*
X243500000Y-76600000D01*
X243500000Y-86600000D02*
X236700000Y-86600000D01*
X225507000Y-38267000D02*
X225507000Y-35600000D01*
X222500000Y-48200000D02*
X222500000Y-48600000D01*
X222500000Y-81200000D02*
X222500000Y-81600000D01*
X231500000Y-86600000D02*
X231900000Y-86600000D01*
X243500000Y-35600000D02*
X243500000Y-35900000D01*
X243500000Y-48200000D02*
X243500000Y-48600000D01*
X222500000Y-58400000D02*
X222500000Y-58800000D01*
X243500000Y-71100000D02*
X243500000Y-71500000D01*
X222500000Y-68500000D02*
X222500000Y-68900000D01*
X222500000Y-83800000D02*
X222500000Y-84200000D01*
%TO.C,SW23*%
X199300000Y-124700000D02*
X199300000Y-109500000D01*
X199300000Y-109500000D02*
X184100000Y-109500000D01*
X184100000Y-124700000D02*
X199300000Y-124700000D01*
X184100000Y-109500000D02*
X184100000Y-124700000D01*
%TO.C,SW29*%
X222000000Y-137900000D02*
X237200000Y-137900000D01*
X237200000Y-137900000D02*
X237200000Y-122700000D01*
X222000000Y-122700000D02*
X222000000Y-137900000D01*
X237200000Y-122700000D02*
X222000000Y-122700000D01*
%TO.C,SW14*%
X126400000Y-91200000D02*
X126400000Y-106400000D01*
X126400000Y-106400000D02*
X141600000Y-106400000D01*
X141600000Y-91200000D02*
X126400000Y-91200000D01*
X141600000Y-106400000D02*
X141600000Y-91200000D01*
%TO.C,J1*%
X198295000Y-35395000D02*
X189105000Y-35395000D01*
X189105000Y-41725000D02*
X189105000Y-40825000D01*
X198295000Y-38125000D02*
X198295000Y-35395000D01*
X198175000Y-44805000D02*
X189225000Y-44805000D01*
X198295000Y-41725000D02*
X198295000Y-40825000D01*
X189105000Y-38125000D02*
X189105000Y-35395000D01*
%TO.C,SW13*%
X98200291Y-91200000D02*
X98200291Y-106400000D01*
X98200291Y-106400000D02*
X113400291Y-106400000D01*
X113400291Y-106400000D02*
X113400291Y-91200000D01*
X113400291Y-91200000D02*
X98200291Y-91200000D01*
%TO.C,SW6*%
X218400000Y-55000000D02*
X203200000Y-55000000D01*
X203200000Y-55000000D02*
X203200000Y-70200000D01*
X218400000Y-70200000D02*
X218400000Y-55000000D01*
X203200000Y-70200000D02*
X218400000Y-70200000D01*
%TO.C,SW27*%
X170400000Y-142994035D02*
X185600000Y-142994035D01*
X185600000Y-142994035D02*
X185600000Y-127794035D01*
X185600000Y-127794035D02*
X170400000Y-127794035D01*
X170400000Y-127794035D02*
X170400000Y-142994035D01*
%TO.C,SW10*%
X180000000Y-85200000D02*
X180000000Y-70000000D01*
X180000000Y-70000000D02*
X164800000Y-70000000D01*
X164800000Y-70000000D02*
X164800000Y-85200000D01*
X164800000Y-85200000D02*
X180000000Y-85200000D01*
%TO.C,SW1*%
X107270058Y-54600000D02*
X107270058Y-69800000D01*
X107270058Y-69800000D02*
X122470058Y-69800000D01*
X122470058Y-69800000D02*
X122470058Y-54600000D01*
X122470058Y-54600000D02*
X107270058Y-54600000D01*
%TO.C,SW11*%
X199200000Y-88300000D02*
X199200000Y-73100000D01*
X199200000Y-73100000D02*
X184000000Y-73100000D01*
X184000000Y-88300000D02*
X199200000Y-88300000D01*
X184000000Y-73100000D02*
X184000000Y-88300000D01*
%TO.C,SW30*%
X88770058Y-83100000D02*
X103970058Y-83100000D01*
X103970058Y-67900000D02*
X88770058Y-67900000D01*
X103970058Y-83100000D02*
X103970058Y-67900000D01*
X88770058Y-67900000D02*
X88770058Y-83100000D01*
%TO.C,SW21*%
X145600000Y-124800000D02*
X160800000Y-124800000D01*
X160800000Y-109600000D02*
X145600000Y-109600000D01*
X145600000Y-109600000D02*
X145600000Y-124800000D01*
X160800000Y-124800000D02*
X160800000Y-109600000D01*
%TO.C,SW9*%
X145600000Y-88300000D02*
X160800000Y-88300000D01*
X145600000Y-73100000D02*
X145600000Y-88300000D01*
X160800000Y-88300000D02*
X160800000Y-73100000D01*
X160800000Y-73100000D02*
X145600000Y-73100000D01*
%TO.C,SW4*%
X180000000Y-67200000D02*
X180000000Y-52000000D01*
X164800000Y-67200000D02*
X180000000Y-67200000D01*
X164800000Y-52000000D02*
X164800000Y-67200000D01*
X180000000Y-52000000D02*
X164800000Y-52000000D01*
%TO.C,SW7*%
X107300291Y-72900000D02*
X107300291Y-88100000D01*
X122500291Y-72900000D02*
X107300291Y-72900000D01*
X107300291Y-88100000D02*
X122500291Y-88100000D01*
X122500291Y-88100000D02*
X122500291Y-72900000D01*
%TO.C,SW100*%
X249246000Y-67576000D02*
X245546000Y-67576000D01*
X245546000Y-67576000D02*
X245546000Y-61456000D01*
X245546000Y-61456000D02*
X249246000Y-61456000D01*
X249246000Y-61456000D02*
X249246000Y-67576000D01*
%TO.C,SW17*%
X199200000Y-91400000D02*
X184000000Y-91400000D01*
X184000000Y-106600000D02*
X199200000Y-106600000D01*
X184000000Y-91400000D02*
X184000000Y-106600000D01*
X199200000Y-106600000D02*
X199200000Y-91400000D01*
%TO.C,SW19*%
X98200291Y-109400000D02*
X98200291Y-124600000D01*
X113400291Y-109400000D02*
X98200291Y-109400000D01*
X113400291Y-124600000D02*
X113400291Y-109400000D01*
X98200291Y-124600000D02*
X113400291Y-124600000D01*
%TO.C,SW24*%
X203300000Y-109500000D02*
X203300000Y-124700000D01*
X218500000Y-109500000D02*
X203300000Y-109500000D01*
X203300000Y-124700000D02*
X218500000Y-124700000D01*
X218500000Y-124700000D02*
X218500000Y-109500000D01*
%TO.C,SW28*%
X213999709Y-142994035D02*
X213999709Y-127794035D01*
X198799709Y-127794035D02*
X198799709Y-142994035D01*
X213999709Y-127794035D02*
X198799709Y-127794035D01*
X198799709Y-142994035D02*
X213999709Y-142994035D01*
%TO.C,SW5*%
X184000000Y-55000000D02*
X184000000Y-70200000D01*
X199200000Y-70200000D02*
X199200000Y-55000000D01*
X184000000Y-70200000D02*
X199200000Y-70200000D01*
X199200000Y-55000000D02*
X184000000Y-55000000D01*
%TO.C,SW3*%
X160800000Y-69900000D02*
X160800000Y-54700000D01*
X145600000Y-54700000D02*
X145600000Y-69900000D01*
X160800000Y-54700000D02*
X145600000Y-54700000D01*
X145600000Y-69900000D02*
X160800000Y-69900000D01*
%TO.C,SW25*%
X126900000Y-143000000D02*
X142100000Y-143000000D01*
X126900000Y-127800000D02*
X126900000Y-143000000D01*
X142100000Y-127800000D02*
X126900000Y-127800000D01*
X142100000Y-143000000D02*
X142100000Y-127800000D01*
%TO.C,SW22*%
X164800000Y-121700000D02*
X180000000Y-121700000D01*
X180000000Y-106500000D02*
X164800000Y-106500000D01*
X164800000Y-106500000D02*
X164800000Y-121700000D01*
X180000000Y-121700000D02*
X180000000Y-106500000D01*
%TO.C,SW15*%
X160800000Y-106400000D02*
X160800000Y-91200000D01*
X145600000Y-91200000D02*
X145600000Y-106400000D01*
X160800000Y-91200000D02*
X145600000Y-91200000D01*
X145600000Y-106400000D02*
X160800000Y-106400000D01*
%TO.C,SW8*%
X141600000Y-88100000D02*
X141600000Y-72900000D01*
X126400000Y-72900000D02*
X126400000Y-88100000D01*
X141600000Y-72900000D02*
X126400000Y-72900000D01*
X126400000Y-88100000D02*
X141600000Y-88100000D01*
%TO.C,SW12*%
X218400000Y-73200000D02*
X203200000Y-73200000D01*
X203200000Y-88400000D02*
X218400000Y-88400000D01*
X203200000Y-73200000D02*
X203200000Y-88400000D01*
X218400000Y-88400000D02*
X218400000Y-73200000D01*
%TO.C,SW20*%
X141600000Y-124700000D02*
X141600000Y-109500000D01*
X141600000Y-109500000D02*
X126400000Y-109500000D01*
X126400000Y-124700000D02*
X141600000Y-124700000D01*
X126400000Y-109500000D02*
X126400000Y-124700000D01*
%TO.C,SW16*%
X180000000Y-103500000D02*
X180000000Y-88300000D01*
X180000000Y-88300000D02*
X164800000Y-88300000D01*
X164800000Y-103500000D02*
X180000000Y-103500000D01*
X164800000Y-88300000D02*
X164800000Y-103500000D01*
%TO.C,SW26*%
X146500000Y-143000000D02*
X161700000Y-143000000D01*
X161700000Y-127800000D02*
X146500000Y-127800000D01*
X161700000Y-143000000D02*
X161700000Y-127800000D01*
X146500000Y-127800000D02*
X146500000Y-143000000D01*
%TD*%
M02*
