%TF.GenerationSoftware,KiCad,Pcbnew,(6.0.6-0)*%
%TF.CreationDate,2023-01-06T16:27:02+00:00*%
%TF.ProjectId,MacSplit60,4d616353-706c-4697-9436-302e6b696361,rev?*%
%TF.SameCoordinates,Original*%
%TF.FileFunction,Soldermask,Bot*%
%TF.FilePolarity,Negative*%
%FSLAX46Y46*%
G04 Gerber Fmt 4.6, Leading zero omitted, Abs format (unit mm)*
G04 Created by KiCad (PCBNEW (6.0.6-0)) date 2023-01-06 16:27:02*
%MOMM*%
%LPD*%
G01*
G04 APERTURE LIST*
G04 Aperture macros list*
%AMRoundRect*
0 Rectangle with rounded corners*
0 $1 Rounding radius*
0 $2 $3 $4 $5 $6 $7 $8 $9 X,Y pos of 4 corners*
0 Add a 4 corners polygon primitive as box body*
4,1,4,$2,$3,$4,$5,$6,$7,$8,$9,$2,$3,0*
0 Add four circle primitives for the rounded corners*
1,1,$1+$1,$2,$3*
1,1,$1+$1,$4,$5*
1,1,$1+$1,$6,$7*
1,1,$1+$1,$8,$9*
0 Add four rect primitives between the rounded corners*
20,1,$1+$1,$2,$3,$4,$5,0*
20,1,$1+$1,$4,$5,$6,$7,0*
20,1,$1+$1,$6,$7,$8,$9,0*
20,1,$1+$1,$8,$9,$2,$3,0*%
G04 Aperture macros list end*
%ADD10C,0.150000*%
%ADD11C,1.900000*%
%ADD12C,5.050000*%
%ADD13C,2.600000*%
%ADD14C,2.200000*%
%ADD15O,1.800000X1.800000*%
%ADD16O,1.500000X1.500000*%
%ADD17O,1.700000X1.700000*%
%ADD18R,1.700000X1.700000*%
%ADD19C,3.200000*%
%ADD20C,0.700000*%
%ADD21O,0.900000X1.700000*%
%ADD22O,0.900000X2.400000*%
%ADD23R,1.000000X1.000000*%
%ADD24RoundRect,0.075000X-0.437500X-0.075000X0.437500X-0.075000X0.437500X0.075000X-0.437500X0.075000X0*%
%ADD25RoundRect,0.075000X-0.075000X-0.437500X0.075000X-0.437500X0.075000X0.437500X-0.075000X0.437500X0*%
%ADD26R,4.250000X4.250000*%
%ADD27RoundRect,0.237500X-0.237500X0.250000X-0.237500X-0.250000X0.237500X-0.250000X0.237500X0.250000X0*%
%ADD28RoundRect,0.225000X0.250000X-0.225000X0.250000X0.225000X-0.250000X0.225000X-0.250000X-0.225000X0*%
G04 APERTURE END LIST*
D10*
X248266666Y-125704761D02*
X248933333Y-124752380D01*
X249409523Y-125704761D02*
X249409523Y-123704761D01*
X248647619Y-123704761D01*
X248457142Y-123800000D01*
X248361904Y-123895238D01*
X248266666Y-124085714D01*
X248266666Y-124371428D01*
X248361904Y-124561904D01*
X248457142Y-124657142D01*
X248647619Y-124752380D01*
X249409523Y-124752380D01*
X247409523Y-125704761D02*
X247409523Y-123704761D01*
X245409523Y-123800000D02*
X245600000Y-123704761D01*
X245885714Y-123704761D01*
X246171428Y-123800000D01*
X246361904Y-123990476D01*
X246457142Y-124180952D01*
X246552380Y-124561904D01*
X246552380Y-124847619D01*
X246457142Y-125228571D01*
X246361904Y-125419047D01*
X246171428Y-125609523D01*
X245885714Y-125704761D01*
X245695238Y-125704761D01*
X245409523Y-125609523D01*
X245314285Y-125514285D01*
X245314285Y-124847619D01*
X245695238Y-124847619D01*
X244457142Y-125704761D02*
X244457142Y-123704761D01*
X244457142Y-124657142D02*
X243314285Y-124657142D01*
X243314285Y-125704761D02*
X243314285Y-123704761D01*
X242647619Y-123704761D02*
X241504761Y-123704761D01*
X242076190Y-125704761D02*
X242076190Y-123704761D01*
D11*
%TO.C,SW2*%
X128500000Y-62200000D03*
X139500000Y-62200000D03*
D12*
X134000000Y-62200000D03*
D13*
X129000000Y-67350000D03*
X139000000Y-67350000D03*
D14*
X134000000Y-56300000D03*
X129000000Y-58400000D03*
X139000000Y-58400000D03*
%TD*%
D11*
%TO.C,SW18*%
X205300000Y-99000000D03*
D13*
X215800000Y-104150000D03*
D12*
X210800000Y-99000000D03*
D13*
X205800000Y-104150000D03*
D11*
X216300000Y-99000000D03*
D14*
X210800000Y-93100000D03*
X205800000Y-95200000D03*
X215800000Y-95200000D03*
%TD*%
D15*
%TO.C,U1*%
X230275000Y-37100000D03*
D16*
X235425000Y-40130000D03*
X230575000Y-40130000D03*
D15*
X235725000Y-37100000D03*
D17*
X224110000Y-36970000D03*
X224110000Y-39510000D03*
D18*
X224110000Y-42050000D03*
D17*
X224110000Y-44590000D03*
X224110000Y-47130000D03*
X224110000Y-49670000D03*
X224110000Y-52210000D03*
D18*
X224110000Y-54750000D03*
D17*
X224110000Y-57290000D03*
X224110000Y-59830000D03*
X224110000Y-62370000D03*
X224110000Y-64910000D03*
D18*
X224110000Y-67450000D03*
D17*
X224110000Y-69990000D03*
X224110000Y-72530000D03*
X224110000Y-75070000D03*
X224110000Y-77610000D03*
D18*
X224110000Y-80150000D03*
D17*
X224110000Y-82690000D03*
X224110000Y-85230000D03*
X241890000Y-85230000D03*
X241890000Y-82690000D03*
D18*
X241890000Y-80150000D03*
D17*
X241890000Y-77610000D03*
X241890000Y-75070000D03*
X241890000Y-72530000D03*
X241890000Y-69990000D03*
D18*
X241890000Y-67450000D03*
D17*
X241890000Y-64910000D03*
X241890000Y-62370000D03*
X241890000Y-59830000D03*
X241890000Y-57290000D03*
D18*
X241890000Y-54750000D03*
D17*
X241890000Y-52210000D03*
X241890000Y-49670000D03*
X241890000Y-47130000D03*
X241890000Y-44590000D03*
D18*
X241890000Y-42050000D03*
D17*
X241890000Y-39510000D03*
X241890000Y-36970000D03*
X230460000Y-85000000D03*
D18*
X233000000Y-85000000D03*
D17*
X235540000Y-85000000D03*
%TD*%
D11*
%TO.C,SW23*%
X186200000Y-117100000D03*
D13*
X196700000Y-122250000D03*
D11*
X197200000Y-117100000D03*
D13*
X186700000Y-122250000D03*
D12*
X191700000Y-117100000D03*
D14*
X191700000Y-111200000D03*
X196700000Y-113300000D03*
X186700000Y-113300000D03*
%TD*%
D19*
%TO.C,H7*%
X172300000Y-39300000D03*
%TD*%
D13*
%TO.C,SW29*%
X234750000Y-135300000D03*
D11*
X229600000Y-124800000D03*
D12*
X229600000Y-130300000D03*
D11*
X229600000Y-135800000D03*
D13*
X234750000Y-125300000D03*
D14*
X223700000Y-130300000D03*
X225800000Y-135300000D03*
X225800000Y-125300000D03*
%TD*%
D12*
%TO.C,SW14*%
X134000000Y-98800000D03*
D13*
X139000000Y-103950000D03*
X129000000Y-103950000D03*
D11*
X128500000Y-98800000D03*
X139500000Y-98800000D03*
D14*
X134000000Y-92900000D03*
X139000000Y-95000000D03*
X129000000Y-95000000D03*
%TD*%
D20*
%TO.C,J1*%
X196675000Y-44125000D03*
X195825000Y-44125000D03*
X194975000Y-44125000D03*
X194125000Y-44125000D03*
X193275000Y-44125000D03*
X192425000Y-44125000D03*
X191575000Y-44125000D03*
X190725000Y-44125000D03*
X190725000Y-42775000D03*
X191575000Y-42775000D03*
X192425000Y-42775000D03*
X193275000Y-42775000D03*
X194125000Y-42775000D03*
X194975000Y-42775000D03*
X195825000Y-42775000D03*
X196675000Y-42775000D03*
D21*
X198025000Y-39765000D03*
X189375000Y-39765000D03*
D22*
X198025000Y-43145000D03*
X189375000Y-43145000D03*
%TD*%
D12*
%TO.C,SW13*%
X105800291Y-98800000D03*
D11*
X100300291Y-98800000D03*
X111300291Y-98800000D03*
D13*
X110800291Y-103950000D03*
X100800291Y-103950000D03*
D14*
X105800291Y-92900000D03*
X110800291Y-95000000D03*
X100800291Y-95000000D03*
%TD*%
D11*
%TO.C,SW6*%
X205300000Y-62600000D03*
D12*
X210800000Y-62600000D03*
D13*
X205800000Y-67750000D03*
D11*
X216300000Y-62600000D03*
D13*
X215800000Y-67750000D03*
D14*
X210800000Y-56700000D03*
X205800000Y-58800000D03*
X215800000Y-58800000D03*
%TD*%
D12*
%TO.C,SW27*%
X178000000Y-135394035D03*
D13*
X183000000Y-140544035D03*
D11*
X172500000Y-135394035D03*
X183500000Y-135394035D03*
D13*
X173000000Y-140544035D03*
D14*
X178000000Y-129494035D03*
X173000000Y-131594035D03*
X183000000Y-131594035D03*
%TD*%
D13*
%TO.C,SW10*%
X177400000Y-82750000D03*
D11*
X177900000Y-77600000D03*
X166900000Y-77600000D03*
D13*
X167400000Y-82750000D03*
D12*
X172400000Y-77600000D03*
D14*
X172400000Y-71700000D03*
X167400000Y-73800000D03*
X177400000Y-73800000D03*
%TD*%
D11*
%TO.C,SW1*%
X120370058Y-62200000D03*
X109370058Y-62200000D03*
D13*
X119870058Y-67350000D03*
X109870058Y-67350000D03*
D12*
X114870058Y-62200000D03*
D14*
X114870058Y-56300000D03*
X119870058Y-58400000D03*
X109870058Y-58400000D03*
%TD*%
D11*
%TO.C,SW11*%
X197100000Y-80700000D03*
D12*
X191600000Y-80700000D03*
D13*
X196600000Y-85850000D03*
D11*
X186100000Y-80700000D03*
D13*
X186600000Y-85850000D03*
D14*
X191600000Y-74800000D03*
X186600000Y-76900000D03*
X196600000Y-76900000D03*
%TD*%
D19*
%TO.C,H2*%
X244300000Y-138300000D03*
%TD*%
D13*
%TO.C,SW30*%
X91220058Y-70500000D03*
X91220058Y-80500000D03*
D11*
X96370058Y-81000000D03*
X96370058Y-70000000D03*
D12*
X96370058Y-75500000D03*
D14*
X102270058Y-75500000D03*
X100170058Y-70500000D03*
X100170058Y-80500000D03*
%TD*%
D12*
%TO.C,SW21*%
X153200000Y-117200000D03*
D13*
X148200000Y-122350000D03*
D11*
X147700000Y-117200000D03*
D13*
X158200000Y-122350000D03*
D11*
X158700000Y-117200000D03*
D14*
X153200000Y-111300000D03*
X158200000Y-113400000D03*
X148200000Y-113400000D03*
%TD*%
D19*
%TO.C,H5*%
X248900000Y-92600000D03*
%TD*%
D13*
%TO.C,SW9*%
X158200000Y-85850000D03*
D11*
X147700000Y-80700000D03*
D12*
X153200000Y-80700000D03*
D13*
X148200000Y-85850000D03*
D11*
X158700000Y-80700000D03*
D14*
X153200000Y-74800000D03*
X158200000Y-76900000D03*
X148200000Y-76900000D03*
%TD*%
D19*
%TO.C,H4*%
X97800000Y-39300000D03*
%TD*%
D11*
%TO.C,SW4*%
X166900000Y-59600000D03*
D13*
X167400000Y-64750000D03*
D11*
X177900000Y-59600000D03*
D12*
X172400000Y-59600000D03*
D13*
X177400000Y-64750000D03*
D14*
X172400000Y-53700000D03*
X167400000Y-55800000D03*
X177400000Y-55800000D03*
%TD*%
D13*
%TO.C,SW7*%
X119900291Y-85650000D03*
D11*
X109400291Y-80500000D03*
D13*
X109900291Y-85650000D03*
D12*
X114900291Y-80500000D03*
D11*
X120400291Y-80500000D03*
D14*
X114900291Y-74600000D03*
X119900291Y-76700000D03*
X109900291Y-76700000D03*
%TD*%
D19*
%TO.C,H6*%
X107500000Y-138300000D03*
%TD*%
D11*
%TO.C,SW17*%
X186100000Y-99000000D03*
X197100000Y-99000000D03*
D12*
X191600000Y-99000000D03*
D13*
X196600000Y-104150000D03*
X186600000Y-104150000D03*
D14*
X191600000Y-93100000D03*
X196600000Y-95200000D03*
X186600000Y-95200000D03*
%TD*%
D13*
%TO.C,SW19*%
X100800291Y-122150000D03*
D11*
X111300291Y-117000000D03*
D13*
X110800291Y-122150000D03*
D11*
X100300291Y-117000000D03*
D12*
X105800291Y-117000000D03*
D14*
X105800291Y-111100000D03*
X110800291Y-113200000D03*
X100800291Y-113200000D03*
%TD*%
D12*
%TO.C,SW24*%
X210900000Y-117100000D03*
D13*
X205900000Y-122250000D03*
D11*
X205400000Y-117100000D03*
X216400000Y-117100000D03*
D13*
X215900000Y-122250000D03*
D14*
X210900000Y-111200000D03*
X215900000Y-113300000D03*
X205900000Y-113300000D03*
%TD*%
D13*
%TO.C,SW28*%
X201399709Y-140544035D03*
D12*
X206399709Y-135394035D03*
D13*
X211399709Y-140544035D03*
D11*
X200899709Y-135394035D03*
X211899709Y-135394035D03*
D14*
X206399709Y-129494035D03*
X201399709Y-131594035D03*
X211399709Y-131594035D03*
%TD*%
D13*
%TO.C,SW5*%
X196600000Y-67750000D03*
D12*
X191600000Y-62600000D03*
D13*
X186600000Y-67750000D03*
D11*
X186100000Y-62600000D03*
X197100000Y-62600000D03*
D14*
X191600000Y-56700000D03*
X186600000Y-58800000D03*
X196600000Y-58800000D03*
%TD*%
D11*
%TO.C,SW3*%
X158700000Y-62300000D03*
D13*
X148200000Y-67450000D03*
D11*
X147700000Y-62300000D03*
D13*
X158200000Y-67450000D03*
D12*
X153200000Y-62300000D03*
D14*
X153200000Y-56400000D03*
X148200000Y-58500000D03*
X158200000Y-58500000D03*
%TD*%
D13*
%TO.C,SW25*%
X139500000Y-140550000D03*
D11*
X129000000Y-135400000D03*
D12*
X134500000Y-135400000D03*
D13*
X129500000Y-140550000D03*
D11*
X140000000Y-135400000D03*
D14*
X134500000Y-129500000D03*
X139500000Y-131600000D03*
X129500000Y-131600000D03*
%TD*%
D11*
%TO.C,SW22*%
X177900000Y-114100000D03*
D13*
X177400000Y-119250000D03*
D11*
X166900000Y-114100000D03*
D13*
X167400000Y-119250000D03*
D12*
X172400000Y-114100000D03*
D14*
X172400000Y-108200000D03*
X177400000Y-110300000D03*
X167400000Y-110300000D03*
%TD*%
D12*
%TO.C,SW15*%
X153200000Y-98800000D03*
D11*
X147700000Y-98800000D03*
D13*
X148200000Y-103950000D03*
X158200000Y-103950000D03*
D11*
X158700000Y-98800000D03*
D14*
X153200000Y-92900000D03*
X148200000Y-95000000D03*
X158200000Y-95000000D03*
%TD*%
D19*
%TO.C,H3*%
X248900000Y-38700000D03*
%TD*%
D13*
%TO.C,SW8*%
X139000000Y-85650000D03*
D11*
X139500000Y-80500000D03*
D12*
X134000000Y-80500000D03*
D11*
X128500000Y-80500000D03*
D13*
X129000000Y-85650000D03*
D14*
X134000000Y-74600000D03*
X129000000Y-76700000D03*
X139000000Y-76700000D03*
%TD*%
D12*
%TO.C,SW12*%
X210800000Y-80800000D03*
D13*
X205800000Y-85950000D03*
X215800000Y-85950000D03*
D11*
X205300000Y-80800000D03*
X216300000Y-80800000D03*
D14*
X210800000Y-74900000D03*
X215800000Y-77000000D03*
X205800000Y-77000000D03*
%TD*%
D12*
%TO.C,SW20*%
X134000000Y-117100000D03*
D11*
X128500000Y-117100000D03*
D13*
X129000000Y-122250000D03*
D11*
X139500000Y-117100000D03*
D13*
X139000000Y-122250000D03*
D14*
X134000000Y-111200000D03*
X129000000Y-113300000D03*
X139000000Y-113300000D03*
%TD*%
D11*
%TO.C,SW16*%
X177900000Y-95900000D03*
X166900000Y-95900000D03*
D13*
X167400000Y-101050000D03*
D12*
X172400000Y-95900000D03*
D13*
X177400000Y-101050000D03*
D14*
X172400000Y-90000000D03*
X167400000Y-92100000D03*
X177400000Y-92100000D03*
%TD*%
D11*
%TO.C,SW26*%
X159600000Y-135400000D03*
D13*
X149100000Y-140550000D03*
D12*
X154100000Y-135400000D03*
D13*
X159100000Y-140550000D03*
D11*
X148600000Y-135400000D03*
D14*
X154100000Y-129500000D03*
X159100000Y-131600000D03*
X149100000Y-131600000D03*
%TD*%
D23*
%TO.C,D12*%
X143600000Y-79350000D03*
X143600000Y-76850000D03*
%TD*%
%TO.C,D23*%
X124400291Y-115750000D03*
X124400291Y-113250000D03*
%TD*%
%TO.C,D19*%
X182000000Y-94650000D03*
X182000000Y-92150000D03*
%TD*%
%TO.C,D18*%
X162800000Y-97550000D03*
X162800000Y-95050000D03*
%TD*%
%TO.C,D13*%
X162800000Y-76350000D03*
X162800000Y-73850000D03*
%TD*%
%TO.C,D5*%
X182000000Y-61350000D03*
X182000000Y-58850000D03*
%TD*%
%TO.C,D29*%
X144300000Y-134050000D03*
X144300000Y-131550000D03*
%TD*%
D24*
%TO.C,U2*%
X230262500Y-79410000D03*
X230262500Y-78760000D03*
X230262500Y-78110000D03*
X230262500Y-77460000D03*
X230262500Y-76810000D03*
X230262500Y-76160000D03*
X230262500Y-75510000D03*
D25*
X231150000Y-74622500D03*
X231800000Y-74622500D03*
X232450000Y-74622500D03*
X233100000Y-74622500D03*
X233750000Y-74622500D03*
X234400000Y-74622500D03*
X235050000Y-74622500D03*
D24*
X235937500Y-75510000D03*
X235937500Y-76160000D03*
X235937500Y-76810000D03*
X235937500Y-77460000D03*
X235937500Y-78110000D03*
X235937500Y-78760000D03*
X235937500Y-79410000D03*
D25*
X235050000Y-80297500D03*
X234400000Y-80297500D03*
X233750000Y-80297500D03*
X233100000Y-80297500D03*
X232450000Y-80297500D03*
X231800000Y-80297500D03*
X231150000Y-80297500D03*
D26*
X233100000Y-77460000D03*
%TD*%
D27*
%TO.C,R1*%
X238890000Y-47117500D03*
X238890000Y-48942500D03*
%TD*%
D23*
%TO.C,D25*%
X162800000Y-112850000D03*
X162800000Y-110350000D03*
%TD*%
%TO.C,D30*%
X163800000Y-134050000D03*
X163800000Y-131550000D03*
%TD*%
%TO.C,D32*%
X222450000Y-139300000D03*
X224950000Y-139300000D03*
%TD*%
%TO.C,D24*%
X143600291Y-115850000D03*
X143600291Y-113350000D03*
%TD*%
%TO.C,D1*%
X105300291Y-60750000D03*
X105300291Y-58250000D03*
%TD*%
%TO.C,D2*%
X124300291Y-60850000D03*
X124300291Y-58350000D03*
%TD*%
%TO.C,D15*%
X201200000Y-79550000D03*
X201200000Y-77050000D03*
%TD*%
%TO.C,D10*%
X105400291Y-80850000D03*
X105400291Y-78350000D03*
%TD*%
%TO.C,D31*%
X192200000Y-134150000D03*
X192200000Y-131650000D03*
%TD*%
%TO.C,D22*%
X115250000Y-126800000D03*
X112750000Y-126800000D03*
%TD*%
%TO.C,D17*%
X143600291Y-97450000D03*
X143600291Y-94950000D03*
%TD*%
%TO.C,D26*%
X182100000Y-115650000D03*
X182100000Y-113150000D03*
%TD*%
%TO.C,D6*%
X201200000Y-61250000D03*
X201200000Y-58750000D03*
%TD*%
%TO.C,D4*%
X162800000Y-58350000D03*
X162800000Y-55850000D03*
%TD*%
%TO.C,D11*%
X124500291Y-79150000D03*
X124500291Y-76650000D03*
%TD*%
%TO.C,D16*%
X124400291Y-97450000D03*
X124400291Y-94950000D03*
%TD*%
%TO.C,D28*%
X123900000Y-134150000D03*
X123900000Y-131650000D03*
%TD*%
%TO.C,D14*%
X182100000Y-79350000D03*
X182100000Y-76850000D03*
%TD*%
%TO.C,D27*%
X201300000Y-115850000D03*
X201300000Y-113350000D03*
%TD*%
%TO.C,D20*%
X201200000Y-97750000D03*
X201200000Y-95250000D03*
%TD*%
%TO.C,D33*%
X97650291Y-84800000D03*
X100150291Y-84800000D03*
%TD*%
%TO.C,D21*%
X220400000Y-97550000D03*
X220400000Y-95050000D03*
%TD*%
%TO.C,D3*%
X143600000Y-60950000D03*
X143600000Y-58450000D03*
%TD*%
D28*
%TO.C,C2*%
X228660000Y-76825000D03*
X228660000Y-75275000D03*
%TD*%
M02*
