%TF.GenerationSoftware,KiCad,Pcbnew,(6.0.6-0)*%
%TF.CreationDate,2023-01-06T16:27:02+00:00*%
%TF.ProjectId,MacSplit60,4d616353-706c-4697-9436-302e6b696361,rev?*%
%TF.SameCoordinates,Original*%
%TF.FileFunction,Paste,Top*%
%TF.FilePolarity,Positive*%
%FSLAX46Y46*%
G04 Gerber Fmt 4.6, Leading zero omitted, Abs format (unit mm)*
G04 Created by KiCad (PCBNEW (6.0.6-0)) date 2023-01-06 16:27:02*
%MOMM*%
%LPD*%
G01*
G04 APERTURE LIST*
G04 Aperture macros list*
%AMRoundRect*
0 Rectangle with rounded corners*
0 $1 Rounding radius*
0 $2 $3 $4 $5 $6 $7 $8 $9 X,Y pos of 4 corners*
0 Add a 4 corners polygon primitive as box body*
4,1,4,$2,$3,$4,$5,$6,$7,$8,$9,$2,$3,0*
0 Add four circle primitives for the rounded corners*
1,1,$1+$1,$2,$3*
1,1,$1+$1,$4,$5*
1,1,$1+$1,$6,$7*
1,1,$1+$1,$8,$9*
0 Add four rect primitives between the rounded corners*
20,1,$1+$1,$2,$3,$4,$5,0*
20,1,$1+$1,$4,$5,$6,$7,0*
20,1,$1+$1,$6,$7,$8,$9,0*
20,1,$1+$1,$8,$9,$2,$3,0*%
G04 Aperture macros list end*
%ADD10RoundRect,0.225000X-0.225000X-0.250000X0.225000X-0.250000X0.225000X0.250000X-0.225000X0.250000X0*%
%ADD11R,1.500000X1.500000*%
%ADD12R,1.000000X1.000000*%
G04 APERTURE END LIST*
D10*
%TO.C,C1*%
X195735000Y-46350000D03*
X197285000Y-46350000D03*
%TD*%
D11*
%TO.C,SW100*%
X247396000Y-60616000D03*
X247396000Y-68416000D03*
%TD*%
D12*
%TO.C,D12*%
X143600000Y-79300000D03*
X143600000Y-76800000D03*
%TD*%
%TO.C,D23*%
X124400291Y-115700000D03*
X124400291Y-113200000D03*
%TD*%
%TO.C,D19*%
X182000000Y-94600000D03*
X182000000Y-92100000D03*
%TD*%
%TO.C,D18*%
X162800000Y-97500000D03*
X162800000Y-95000000D03*
%TD*%
%TO.C,D13*%
X162800000Y-76300000D03*
X162800000Y-73800000D03*
%TD*%
%TO.C,D5*%
X182000000Y-61300000D03*
X182000000Y-58800000D03*
%TD*%
%TO.C,D29*%
X144300000Y-134000000D03*
X144300000Y-131500000D03*
%TD*%
%TO.C,D25*%
X162800000Y-112800000D03*
X162800000Y-110300000D03*
%TD*%
%TO.C,D30*%
X163800000Y-134000000D03*
X163800000Y-131500000D03*
%TD*%
%TO.C,D32*%
X222500000Y-139300000D03*
X225000000Y-139300000D03*
%TD*%
%TO.C,D24*%
X143600291Y-115800000D03*
X143600291Y-113300000D03*
%TD*%
%TO.C,D1*%
X105300291Y-60700000D03*
X105300291Y-58200000D03*
%TD*%
%TO.C,D2*%
X124300291Y-60800000D03*
X124300291Y-58300000D03*
%TD*%
%TO.C,D15*%
X201200000Y-79500000D03*
X201200000Y-77000000D03*
%TD*%
%TO.C,D10*%
X105400291Y-80800000D03*
X105400291Y-78300000D03*
%TD*%
%TO.C,D31*%
X192200000Y-134100000D03*
X192200000Y-131600000D03*
%TD*%
%TO.C,D22*%
X115200000Y-126800000D03*
X112700000Y-126800000D03*
%TD*%
%TO.C,D17*%
X143600291Y-97400000D03*
X143600291Y-94900000D03*
%TD*%
%TO.C,D26*%
X182100000Y-115600000D03*
X182100000Y-113100000D03*
%TD*%
%TO.C,D6*%
X201200000Y-61200000D03*
X201200000Y-58700000D03*
%TD*%
%TO.C,D4*%
X162800000Y-58300000D03*
X162800000Y-55800000D03*
%TD*%
%TO.C,D11*%
X124500291Y-79100000D03*
X124500291Y-76600000D03*
%TD*%
%TO.C,D16*%
X124400291Y-97400000D03*
X124400291Y-94900000D03*
%TD*%
%TO.C,D28*%
X123900000Y-134100000D03*
X123900000Y-131600000D03*
%TD*%
%TO.C,D14*%
X182100000Y-79300000D03*
X182100000Y-76800000D03*
%TD*%
%TO.C,D27*%
X201300000Y-115800000D03*
X201300000Y-113300000D03*
%TD*%
%TO.C,D20*%
X201200000Y-97700000D03*
X201200000Y-95200000D03*
%TD*%
%TO.C,D33*%
X97700291Y-84800000D03*
X100200291Y-84800000D03*
%TD*%
%TO.C,D21*%
X220400000Y-97500000D03*
X220400000Y-95000000D03*
%TD*%
%TO.C,D3*%
X143600000Y-60900000D03*
X143600000Y-58400000D03*
%TD*%
M02*
